<?xml version="1.0" encoding="UTF-8" standalone="no"?>
<!DOCTYPE svg PUBLIC "-//W3C//DTD SVG 1.1//EN"
 "http://www.w3.org/Graphics/SVG/1.1/DTD/svg11.dtd">
<!-- Generated by graphviz version 9.0.0 (20230911.1827)
 -->
<!-- Title: G Pages: 1 -->
<svg width="738pt" height="1853pt"
 viewBox="0.00 0.00 737.75 1853.00" xmlns="http://www.w3.org/2000/svg" xmlns:xlink="http://www.w3.org/1999/xlink">
<g id="graph0" class="graph" transform="scale(1 1) rotate(0) translate(4 1849)">
<title>G</title>
<polygon fill="white" stroke="none" points="-4,4 -4,-1849 733.75,-1849 733.75,4 -4,4"/>
<!-- d2 -->
<g id="node1" class="node">
<title>d2</title>
<path fill="#67000d" stroke="black" stroke-width="0" d="M65,-36C65,-36 35,-36 35,-36 29,-36 23,-30 23,-24 23,-24 23,-12 23,-12 23,-6 29,0 35,0 35,0 65,0 65,0 71,0 77,-6 77,-12 77,-12 77,-24 77,-24 77,-30 71,-36 65,-36"/>
<text text-anchor="middle" x="50" y="-12.57" font-family="Arial" font-size="14.00" fill="white">d2</text>
</g>
<!-- dbml -->
<g id="node2" class="node">
<title>dbml</title>
<path fill="#67000d" stroke="black" stroke-width="0" d="M65,-90C65,-90 35,-90 35,-90 29,-90 23,-84 23,-78 23,-78 23,-66 23,-66 23,-60 29,-54 35,-54 35,-54 65,-54 65,-54 71,-54 77,-60 77,-66 77,-66 77,-78 77,-78 77,-84 71,-90 65,-90"/>
<text text-anchor="middle" x="50" y="-66.58" font-family="Arial" font-size="14.00" fill="white">dbml</text>
</g>
<!-- dbml&#45;b -->
<g id="node3" class="node">
<title>dbml&#45;b</title>
<path fill="#fee0d2" stroke="black" stroke-width="0" d="M198.12,-90C198.12,-90 164.12,-90 164.12,-90 158.12,-90 152.12,-84 152.12,-78 152.12,-78 152.12,-66 152.12,-66 152.12,-60 158.12,-54 164.12,-54 164.12,-54 198.12,-54 198.12,-54 204.12,-54 210.12,-60 210.12,-66 210.12,-66 210.12,-78 210.12,-78 210.12,-84 204.12,-90 198.12,-90"/>
<text text-anchor="middle" x="181.12" y="-66.58" font-family="Arial" font-size="14.00">dbml&#45;b</text>
</g>
<!-- dbml&#45;&gt;dbml&#45;b -->
<g id="edge1" class="edge">
<title>dbml&#45;&gt;dbml&#45;b</title>
<path fill="none" stroke="black" d="M88.3,-72C108.81,-72 133.83,-72 152.56,-72"/>
<polygon fill="black" stroke="black" points="88.33,-68.5 78.33,-72 88.33,-75.5 88.33,-68.5"/>
</g>
<!-- sql -->
<g id="node4" class="node">
<title>sql</title>
<path fill="#67000d" stroke="black" stroke-width="0" d="M65,-360C65,-360 35,-360 35,-360 29,-360 23,-354 23,-348 23,-348 23,-336 23,-336 23,-330 29,-324 35,-324 35,-324 65,-324 65,-324 71,-324 77,-330 77,-336 77,-336 77,-348 77,-348 77,-354 71,-360 65,-360"/>
<text text-anchor="middle" x="50" y="-336.57" font-family="Arial" font-size="14.00" fill="white">sql</text>
</g>
<!-- ddl -->
<g id="node5" class="node">
<title>ddl</title>
<path fill="#fff5f0" stroke="black" stroke-width="0" d="M196.12,-522C196.12,-522 166.12,-522 166.12,-522 160.12,-522 154.12,-516 154.12,-510 154.12,-510 154.12,-498 154.12,-498 154.12,-492 160.12,-486 166.12,-486 166.12,-486 196.12,-486 196.12,-486 202.12,-486 208.12,-492 208.12,-498 208.12,-498 208.12,-510 208.12,-510 208.12,-516 202.12,-522 196.12,-522"/>
<text text-anchor="middle" x="181.12" y="-498.57" font-family="Arial" font-size="14.00">ddl</text>
</g>
<!-- sql&#45;&gt;ddl -->
<g id="edge2" class="edge">
<title>sql&#45;&gt;ddl</title>
<path fill="none" stroke="black" d="M68.97,-368.96C78.35,-383.17 89.94,-400.94 100,-417 116.51,-443.36 114.11,-454.91 136,-477 141.31,-482.36 147.89,-487.11 154.33,-491.07"/>
<polygon fill="black" stroke="black" points="72.15,-367.42 63.71,-361.02 66.32,-371.29 72.15,-367.42"/>
</g>
<!-- mssql -->
<g id="node52" class="node">
<title>mssql</title>
<path fill="#ef3b2c" stroke="black" stroke-width="0" d="M196.12,-468C196.12,-468 166.12,-468 166.12,-468 160.12,-468 154.12,-462 154.12,-456 154.12,-456 154.12,-444 154.12,-444 154.12,-438 160.12,-432 166.12,-432 166.12,-432 196.12,-432 196.12,-432 202.12,-432 208.12,-438 208.12,-444 208.12,-444 208.12,-456 208.12,-456 208.12,-462 202.12,-468 196.12,-468"/>
<text text-anchor="middle" x="181.12" y="-444.57" font-family="Arial" font-size="14.00" fill="white">mssql</text>
</g>
<!-- sql&#45;&gt;mssql -->
<g id="edge46" class="edge">
<title>sql&#45;&gt;mssql</title>
<path fill="none" stroke="black" d="M80.97,-367.07C104.8,-387 137.54,-414.39 158.77,-432.14"/>
<polygon fill="black" stroke="black" points="83.4,-364.54 73.48,-360.81 78.91,-369.91 83.4,-364.54"/>
</g>
<!-- mysql -->
<g id="node54" class="node">
<title>mysql</title>
<path fill="#ef3b2c" stroke="black" stroke-width="0" d="M196.12,-387C196.12,-387 166.12,-387 166.12,-387 160.12,-387 154.12,-381 154.12,-375 154.12,-375 154.12,-363 154.12,-363 154.12,-357 160.12,-351 166.12,-351 166.12,-351 196.12,-351 196.12,-351 202.12,-351 208.12,-357 208.12,-363 208.12,-363 208.12,-375 208.12,-375 208.12,-381 202.12,-387 196.12,-387"/>
<text text-anchor="middle" x="181.12" y="-363.57" font-family="Arial" font-size="14.00" fill="white">mysql</text>
</g>
<!-- sql&#45;&gt;mysql -->
<g id="edge48" class="edge">
<title>sql&#45;&gt;mysql</title>
<path fill="none" stroke="black" d="M88.03,-349.74C109.25,-354.18 135.36,-359.64 154.35,-363.61"/>
<polygon fill="black" stroke="black" points="88.81,-346.33 78.3,-347.71 87.37,-353.18 88.81,-346.33"/>
</g>
<!-- oracle -->
<g id="node56" class="node">
<title>oracle</title>
<path fill="#ef3b2c" stroke="black" stroke-width="0" d="M196.12,-333C196.12,-333 166.12,-333 166.12,-333 160.12,-333 154.12,-327 154.12,-321 154.12,-321 154.12,-309 154.12,-309 154.12,-303 160.12,-297 166.12,-297 166.12,-297 196.12,-297 196.12,-297 202.12,-297 208.12,-303 208.12,-309 208.12,-309 208.12,-321 208.12,-321 208.12,-327 202.12,-333 196.12,-333"/>
<text text-anchor="middle" x="181.12" y="-309.57" font-family="Arial" font-size="14.00" fill="white">oracle</text>
</g>
<!-- sql&#45;&gt;oracle -->
<g id="edge50" class="edge">
<title>sql&#45;&gt;oracle</title>
<path fill="none" stroke="black" d="M88.03,-334.26C109.25,-329.82 135.36,-324.36 154.35,-320.39"/>
<polygon fill="black" stroke="black" points="87.37,-330.82 78.3,-336.29 88.81,-337.67 87.37,-330.82"/>
</g>
<!-- postgresql -->
<g id="node62" class="node">
<title>postgresql</title>
<path fill="#ef3b2c" stroke="black" stroke-width="0" d="M208.25,-225C208.25,-225 154,-225 154,-225 148,-225 142,-219 142,-213 142,-213 142,-201 142,-201 142,-195 148,-189 154,-189 154,-189 208.25,-189 208.25,-189 214.25,-189 220.25,-195 220.25,-201 220.25,-201 220.25,-213 220.25,-213 220.25,-219 214.25,-225 208.25,-225"/>
<text text-anchor="middle" x="181.12" y="-201.57" font-family="Arial" font-size="14.00" fill="white">postgresql</text>
</g>
<!-- sql&#45;&gt;postgresql -->
<g id="edge56" class="edge">
<title>sql&#45;&gt;postgresql</title>
<path fill="none" stroke="black" d="M75.98,-315.88C101.7,-288.99 141.08,-247.82 163.32,-224.57"/>
<polygon fill="black" stroke="black" points="73.58,-313.33 69.19,-322.98 78.63,-318.17 73.58,-313.33"/>
</g>
<!-- sqlite -->
<g id="node66" class="node">
<title>sqlite</title>
<path fill="#fb6a4a" stroke="black" stroke-width="0" d="M196.12,-144C196.12,-144 166.12,-144 166.12,-144 160.12,-144 154.12,-138 154.12,-132 154.12,-132 154.12,-120 154.12,-120 154.12,-114 160.12,-108 166.12,-108 166.12,-108 196.12,-108 196.12,-108 202.12,-108 208.12,-114 208.12,-120 208.12,-120 208.12,-132 208.12,-132 208.12,-138 202.12,-144 196.12,-144"/>
<text text-anchor="middle" x="181.12" y="-120.58" font-family="Arial" font-size="14.00">sqlite</text>
</g>
<!-- sql&#45;&gt;sqlite -->
<g id="edge60" class="edge">
<title>sql&#45;&gt;sqlite</title>
<path fill="none" stroke="black" d="M63.55,-314.05C78.87,-280.97 106.41,-224.75 136,-180 144.41,-167.27 155.23,-153.99 164.05,-143.79"/>
<polygon fill="black" stroke="black" points="60.45,-312.4 59.47,-322.95 66.81,-315.32 60.45,-312.4"/>
</g>
<!-- debug -->
<g id="node6" class="node">
<title>debug</title>
<path fill="#67000d" stroke="black" stroke-width="0" d="M65,-462C65,-462 35,-462 35,-462 29,-462 23,-456 23,-450 23,-450 23,-438 23,-438 23,-432 29,-426 35,-426 35,-426 65,-426 65,-426 71,-426 77,-432 77,-438 77,-438 77,-450 77,-450 77,-456 71,-462 65,-462"/>
<text text-anchor="middle" x="50" y="-438.57" font-family="Arial" font-size="14.00" fill="white">debug</text>
</g>
<!-- dependencies -->
<g id="node7" class="node">
<title>dependencies</title>
<path fill="#67000d" stroke="black" stroke-width="0" d="M88,-556C88,-556 12,-556 12,-556 6,-556 0,-550 0,-544 0,-544 0,-532 0,-532 0,-526 6,-520 12,-520 12,-520 88,-520 88,-520 94,-520 100,-526 100,-532 100,-532 100,-544 100,-544 100,-550 94,-556 88,-556"/>
<text text-anchor="middle" x="50" y="-532.58" font-family="Arial" font-size="14.00" fill="white">dependencies</text>
</g>
<!-- diagram&#45;c -->
<g id="node8" class="node">
<title>diagram&#45;c</title>
<path fill="#67000d" stroke="black" stroke-width="0" d="M76.38,-630C76.38,-630 23.62,-630 23.62,-630 17.62,-630 11.62,-624 11.62,-618 11.62,-618 11.62,-606 11.62,-606 11.62,-600 17.62,-594 23.62,-594 23.62,-594 76.38,-594 76.38,-594 82.38,-594 88.38,-600 88.38,-606 88.38,-606 88.38,-618 88.38,-618 88.38,-624 82.38,-630 76.38,-630"/>
<text text-anchor="middle" x="50" y="-606.58" font-family="Arial" font-size="14.00" fill="white">diagram&#45;c</text>
</g>
<!-- diagram -->
<g id="node9" class="node">
<title>diagram</title>
<path fill="#fcbba1" stroke="black" stroke-width="0" d="M201.88,-630C201.88,-630 160.38,-630 160.38,-630 154.38,-630 148.38,-624 148.38,-618 148.38,-618 148.38,-606 148.38,-606 148.38,-600 154.38,-594 160.38,-594 160.38,-594 201.88,-594 201.88,-594 207.88,-594 213.88,-600 213.88,-606 213.88,-606 213.88,-618 213.88,-618 213.88,-624 207.88,-630 201.88,-630"/>
<text text-anchor="middle" x="181.12" y="-606.58" font-family="Arial" font-size="14.00">diagram</text>
</g>
<!-- diagram&#45;c&#45;&gt;diagram -->
<g id="edge3" class="edge">
<title>diagram&#45;c&#45;&gt;diagram</title>
<path fill="none" stroke="black" d="M99.43,-612C115.85,-612 133.77,-612 148.54,-612"/>
<polygon fill="black" stroke="black" points="99.86,-608.5 89.86,-612 99.86,-615.5 99.86,-608.5"/>
</g>
<!-- html&#45;bc -->
<g id="node10" class="node">
<title>html&#45;bc</title>
<path fill="#fee0d2" stroke="black" stroke-width="0" d="M199.62,-1764C199.62,-1764 162.62,-1764 162.62,-1764 156.62,-1764 150.62,-1758 150.62,-1752 150.62,-1752 150.62,-1740 150.62,-1740 150.62,-1734 156.62,-1728 162.62,-1728 162.62,-1728 199.62,-1728 199.62,-1728 205.62,-1728 211.62,-1734 211.62,-1740 211.62,-1740 211.62,-1752 211.62,-1752 211.62,-1758 205.62,-1764 199.62,-1764"/>
<text text-anchor="middle" x="181.12" y="-1740.58" font-family="Arial" font-size="14.00">html&#45;bc</text>
</g>
<!-- html&#45;b -->
<g id="node11" class="node">
<title>html&#45;b</title>
<path fill="#fcbba1" stroke="black" stroke-width="0" d="M326.25,-1818C326.25,-1818 296,-1818 296,-1818 290,-1818 284,-1812 284,-1806 284,-1806 284,-1794 284,-1794 284,-1788 290,-1782 296,-1782 296,-1782 326.25,-1782 326.25,-1782 332.25,-1782 338.25,-1788 338.25,-1794 338.25,-1794 338.25,-1806 338.25,-1806 338.25,-1812 332.25,-1818 326.25,-1818"/>
<text text-anchor="middle" x="311.12" y="-1794.58" font-family="Arial" font-size="14.00">html&#45;b</text>
</g>
<!-- html&#45;bc&#45;&gt;html&#45;b -->
<g id="edge4" class="edge">
<title>html&#45;bc&#45;&gt;html&#45;b</title>
<path fill="none" stroke="black" d="M222.03,-1762.83C242.36,-1771.41 266.5,-1781.6 284.36,-1789.13"/>
<polygon fill="black" stroke="black" points="223.46,-1759.64 212.89,-1758.98 220.74,-1766.09 223.46,-1759.64"/>
</g>
<!-- html&#45;c -->
<g id="node12" class="node">
<title>html&#45;c</title>
<path fill="#67000d" stroke="black" stroke-width="0" d="M65,-1170C65,-1170 35,-1170 35,-1170 29,-1170 23,-1164 23,-1158 23,-1158 23,-1146 23,-1146 23,-1140 29,-1134 35,-1134 35,-1134 65,-1134 65,-1134 71,-1134 77,-1140 77,-1146 77,-1146 77,-1158 77,-1158 77,-1164 71,-1170 65,-1170"/>
<text text-anchor="middle" x="50" y="-1146.58" font-family="Arial" font-size="14.00" fill="white">html&#45;c</text>
</g>
<!-- html&#45;c&#45;&gt;html&#45;bc -->
<g id="edge5" class="edge">
<title>html&#45;c&#45;&gt;html&#45;bc</title>
<path fill="none" stroke="black" d="M53.87,-1180.99C61.88,-1257.11 87.16,-1468.46 136,-1638 145.42,-1670.7 161.48,-1706.99 171.41,-1728.08"/>
<polygon fill="black" stroke="black" points="57.4,-1181.06 52.89,-1171.47 50.44,-1181.78 57.4,-1181.06"/>
</g>
<!-- html&#45;ce -->
<g id="node13" class="node">
<title>html&#45;ce</title>
<path fill="#67000d" stroke="black" stroke-width="0" d="M199.62,-1629C199.62,-1629 162.62,-1629 162.62,-1629 156.62,-1629 150.62,-1623 150.62,-1617 150.62,-1617 150.62,-1605 150.62,-1605 150.62,-1599 156.62,-1593 162.62,-1593 162.62,-1593 199.62,-1593 199.62,-1593 205.62,-1593 211.62,-1599 211.62,-1605 211.62,-1605 211.62,-1617 211.62,-1617 211.62,-1623 205.62,-1629 199.62,-1629"/>
<text text-anchor="middle" x="181.12" y="-1605.58" font-family="Arial" font-size="14.00" fill="white">html&#45;ce</text>
</g>
<!-- html&#45;c&#45;&gt;html&#45;ce -->
<g id="edge8" class="edge">
<title>html&#45;c&#45;&gt;html&#45;ce</title>
<path fill="none" stroke="black" d="M59.11,-1180.82C83.44,-1267.33 155.41,-1523.15 175.1,-1593.13"/>
<polygon fill="black" stroke="black" points="62.55,-1180.13 56.47,-1171.45 55.81,-1182.02 62.55,-1180.13"/>
</g>
<!-- html -->
<g id="node17" class="node">
<title>html</title>
<path fill="#fc9272" stroke="black" stroke-width="0" d="M196.12,-1197C196.12,-1197 166.12,-1197 166.12,-1197 160.12,-1197 154.12,-1191 154.12,-1185 154.12,-1185 154.12,-1173 154.12,-1173 154.12,-1167 160.12,-1161 166.12,-1161 166.12,-1161 196.12,-1161 196.12,-1161 202.12,-1161 208.12,-1167 208.12,-1173 208.12,-1173 208.12,-1185 208.12,-1185 208.12,-1191 202.12,-1197 196.12,-1197"/>
<text text-anchor="middle" x="181.12" y="-1173.58" font-family="Arial" font-size="14.00">html</text>
</g>
<!-- html&#45;c&#45;&gt;html -->
<g id="edge10" class="edge">
<title>html&#45;c&#45;&gt;html</title>
<path fill="none" stroke="black" d="M88.03,-1159.74C109.25,-1164.18 135.36,-1169.64 154.35,-1173.61"/>
<polygon fill="black" stroke="black" points="88.81,-1156.33 78.3,-1157.71 87.37,-1163.18 88.81,-1156.33"/>
</g>
<!-- latex&#45;c -->
<g id="node20" class="node">
<title>latex&#45;c</title>
<path fill="#cb181d" stroke="black" stroke-width="0" d="M197,-1143C197,-1143 165.25,-1143 165.25,-1143 159.25,-1143 153.25,-1137 153.25,-1131 153.25,-1131 153.25,-1119 153.25,-1119 153.25,-1113 159.25,-1107 165.25,-1107 165.25,-1107 197,-1107 197,-1107 203,-1107 209,-1113 209,-1119 209,-1119 209,-1131 209,-1131 209,-1137 203,-1143 197,-1143"/>
<text text-anchor="middle" x="181.12" y="-1119.58" font-family="Arial" font-size="14.00" fill="white">latex&#45;c</text>
</g>
<!-- html&#45;c&#45;&gt;latex&#45;c -->
<g id="edge15" class="edge">
<title>html&#45;c&#45;&gt;latex&#45;c</title>
<path fill="none" stroke="black" d="M87.88,-1144.29C108.8,-1139.91 134.5,-1134.54 153.46,-1130.58"/>
<polygon fill="black" stroke="black" points="87.37,-1140.82 78.3,-1146.29 88.81,-1147.67 87.37,-1140.82"/>
</g>
<!-- markdown&#45;c -->
<g id="node28" class="node">
<title>markdown&#45;c</title>
<path fill="#cb181d" stroke="black" stroke-width="0" d="M214.25,-981C214.25,-981 148,-981 148,-981 142,-981 136,-975 136,-969 136,-969 136,-957 136,-957 136,-951 142,-945 148,-945 148,-945 214.25,-945 214.25,-945 220.25,-945 226.25,-951 226.25,-957 226.25,-957 226.25,-969 226.25,-969 226.25,-975 220.25,-981 214.25,-981"/>
<text text-anchor="middle" x="181.12" y="-957.58" font-family="Arial" font-size="14.00" fill="white">markdown&#45;c</text>
</g>
<!-- html&#45;c&#45;&gt;markdown&#45;c -->
<g id="edge23" class="edge">
<title>html&#45;c&#45;&gt;markdown&#45;c</title>
<path fill="none" stroke="black" d="M69.62,-1124.74C96.45,-1085.48 145.23,-1014.08 167.92,-980.87"/>
<polygon fill="black" stroke="black" points="66.75,-1122.74 64,-1132.97 72.53,-1126.69 66.75,-1122.74"/>
</g>
<!-- text&#45;c -->
<g id="node78" class="node">
<title>text&#45;c</title>
<path fill="#67000d" stroke="black" stroke-width="0" d="M196.12,-765C196.12,-765 166.12,-765 166.12,-765 160.12,-765 154.12,-759 154.12,-753 154.12,-753 154.12,-741 154.12,-741 154.12,-735 160.12,-729 166.12,-729 166.12,-729 196.12,-729 196.12,-729 202.12,-729 208.12,-735 208.12,-741 208.12,-741 208.12,-753 208.12,-753 208.12,-759 202.12,-765 196.12,-765"/>
<text text-anchor="middle" x="181.12" y="-741.58" font-family="Arial" font-size="14.00" fill="white">text&#45;c</text>
</g>
<!-- html&#45;c&#45;&gt;text&#45;c -->
<g id="edge75" class="edge">
<title>html&#45;c&#45;&gt;text&#45;c</title>
<path fill="none" stroke="black" d="M60.06,-1123.57C85.02,-1045.31 154.21,-828.29 174.48,-764.72"/>
<polygon fill="black" stroke="black" points="56.88,-1122.04 57.17,-1132.63 63.55,-1124.17 56.88,-1122.04"/>
</g>
<!-- html&#45;bce -->
<g id="node14" class="node">
<title>html&#45;bce</title>
<path fill="#fee0d2" stroke="black" stroke-width="0" d="M333.38,-1764C333.38,-1764 288.88,-1764 288.88,-1764 282.88,-1764 276.88,-1758 276.88,-1752 276.88,-1752 276.88,-1740 276.88,-1740 276.88,-1734 282.88,-1728 288.88,-1728 288.88,-1728 333.38,-1728 333.38,-1728 339.38,-1728 345.38,-1734 345.38,-1740 345.38,-1740 345.38,-1752 345.38,-1752 345.38,-1758 339.38,-1764 333.38,-1764"/>
<text text-anchor="middle" x="311.12" y="-1740.58" font-family="Arial" font-size="14.00">html&#45;bce</text>
</g>
<!-- html&#45;ce&#45;&gt;html&#45;bce -->
<g id="edge6" class="edge">
<title>html&#45;ce&#45;&gt;html&#45;bce</title>
<path fill="none" stroke="black" d="M198,-1638.56C212.51,-1662.04 235.72,-1695.59 262.25,-1719 266.69,-1722.91 271.78,-1726.52 276.96,-1729.73"/>
<polygon fill="black" stroke="black" points="201.09,-1636.92 192.93,-1630.17 195.1,-1640.54 201.09,-1636.92"/>
</g>
<!-- html&#45;e -->
<g id="node16" class="node">
<title>html&#45;e</title>
<path fill="#fcbba1" stroke="black" stroke-width="0" d="M326.25,-1710C326.25,-1710 296,-1710 296,-1710 290,-1710 284,-1704 284,-1698 284,-1698 284,-1686 284,-1686 284,-1680 290,-1674 296,-1674 296,-1674 326.25,-1674 326.25,-1674 332.25,-1674 338.25,-1680 338.25,-1686 338.25,-1686 338.25,-1698 338.25,-1698 338.25,-1704 332.25,-1710 326.25,-1710"/>
<text text-anchor="middle" x="311.12" y="-1686.58" font-family="Arial" font-size="14.00">html&#45;e</text>
</g>
<!-- html&#45;ce&#45;&gt;html&#45;e -->
<g id="edge9" class="edge">
<title>html&#45;ce&#45;&gt;html&#45;e</title>
<path fill="none" stroke="black" d="M216.66,-1635.15C230.65,-1644.7 247.06,-1655.62 262.25,-1665 269.23,-1669.31 276.93,-1673.77 284.07,-1677.8"/>
<polygon fill="black" stroke="black" points="218.88,-1632.43 208.65,-1629.65 214.91,-1638.2 218.88,-1632.43"/>
</g>
<!-- latex&#45;ce -->
<g id="node21" class="node">
<title>latex&#45;ce</title>
<path fill="#a50f15" stroke="black" stroke-width="0" d="M330.75,-1656C330.75,-1656 291.5,-1656 291.5,-1656 285.5,-1656 279.5,-1650 279.5,-1644 279.5,-1644 279.5,-1632 279.5,-1632 279.5,-1626 285.5,-1620 291.5,-1620 291.5,-1620 330.75,-1620 330.75,-1620 336.75,-1620 342.75,-1626 342.75,-1632 342.75,-1632 342.75,-1644 342.75,-1644 342.75,-1650 336.75,-1656 330.75,-1656"/>
<text text-anchor="middle" x="311.12" y="-1632.58" font-family="Arial" font-size="14.00" fill="white">latex&#45;ce</text>
</g>
<!-- html&#45;ce&#45;&gt;latex&#45;ce -->
<g id="edge16" class="edge">
<title>html&#45;ce&#45;&gt;latex&#45;ce</title>
<path fill="none" stroke="black" d="M222.52,-1619.52C240.98,-1623.41 262.48,-1627.95 279.56,-1631.55"/>
<polygon fill="black" stroke="black" points="223.48,-1616.15 212.97,-1617.51 222.03,-1623 223.48,-1616.15"/>
</g>
<!-- markdown&#45;ce -->
<g id="node29" class="node">
<title>markdown&#45;ce</title>
<path fill="#a50f15" stroke="black" stroke-width="0" d="M348,-1575C348,-1575 274.25,-1575 274.25,-1575 268.25,-1575 262.25,-1569 262.25,-1563 262.25,-1563 262.25,-1551 262.25,-1551 262.25,-1545 268.25,-1539 274.25,-1539 274.25,-1539 348,-1539 348,-1539 354,-1539 360,-1545 360,-1551 360,-1551 360,-1563 360,-1563 360,-1569 354,-1575 348,-1575"/>
<text text-anchor="middle" x="311.12" y="-1551.58" font-family="Arial" font-size="14.00" fill="white">markdown&#45;ce</text>
</g>
<!-- html&#45;ce&#45;&gt;markdown&#45;ce -->
<g id="edge24" class="edge">
<title>html&#45;ce&#45;&gt;markdown&#45;ce</title>
<path fill="none" stroke="black" d="M221.72,-1594.29C236.34,-1588.13 252.95,-1581.12 267.79,-1574.86"/>
<polygon fill="black" stroke="black" points="220.74,-1590.91 212.89,-1598.02 223.46,-1597.36 220.74,-1590.91"/>
</g>
<!-- text&#45;ce -->
<g id="node81" class="node">
<title>text&#45;ce</title>
<path fill="#a50f15" stroke="black" stroke-width="0" d="M327.38,-1386C327.38,-1386 294.88,-1386 294.88,-1386 288.88,-1386 282.88,-1380 282.88,-1374 282.88,-1374 282.88,-1362 282.88,-1362 282.88,-1356 288.88,-1350 294.88,-1350 294.88,-1350 327.38,-1350 327.38,-1350 333.38,-1350 339.38,-1356 339.38,-1362 339.38,-1362 339.38,-1374 339.38,-1374 339.38,-1380 333.38,-1386 327.38,-1386"/>
<text text-anchor="middle" x="311.12" y="-1362.58" font-family="Arial" font-size="14.00" fill="white">text&#45;ce</text>
</g>
<!-- html&#45;ce&#45;&gt;text&#45;ce -->
<g id="edge76" class="edge">
<title>html&#45;ce&#45;&gt;text&#45;ce</title>
<path fill="none" stroke="black" d="M196.9,-1582.95C223.48,-1532.49 278.63,-1427.79 300.7,-1385.89"/>
<polygon fill="black" stroke="black" points="193.81,-1581.31 192.24,-1591.79 200,-1584.58 193.81,-1581.31"/>
</g>
<!-- html&#45;be -->
<g id="node15" class="node">
<title>html&#45;be</title>
<path fill="#fcbba1" stroke="black" stroke-width="0" d="M467.5,-1845C467.5,-1845 429.75,-1845 429.75,-1845 423.75,-1845 417.75,-1839 417.75,-1833 417.75,-1833 417.75,-1821 417.75,-1821 417.75,-1815 423.75,-1809 429.75,-1809 429.75,-1809 467.5,-1809 467.5,-1809 473.5,-1809 479.5,-1815 479.5,-1821 479.5,-1821 479.5,-1833 479.5,-1833 479.5,-1839 473.5,-1845 467.5,-1845"/>
<text text-anchor="middle" x="448.62" y="-1821.58" font-family="Arial" font-size="14.00">html&#45;be</text>
</g>
<!-- html&#45;bce&#45;&gt;html&#45;be -->
<g id="edge7" class="edge">
<title>html&#45;bce&#45;&gt;html&#45;be</title>
<path fill="none" stroke="black" d="M355.02,-1769.83C356.72,-1770.88 358.38,-1771.94 360,-1773 376.75,-1783.94 379.08,-1789.33 396,-1800 402.93,-1804.37 410.64,-1808.68 417.95,-1812.53"/>
<polygon fill="black" stroke="black" points="356.84,-1766.83 346.47,-1764.67 353.23,-1772.83 356.84,-1766.83"/>
</g>
<!-- latex&#45;bc -->
<g id="node18" class="node">
<title>latex&#45;bc</title>
<path fill="#fee0d2" stroke="black" stroke-width="0" d="M330.75,-1197C330.75,-1197 291.5,-1197 291.5,-1197 285.5,-1197 279.5,-1191 279.5,-1185 279.5,-1185 279.5,-1173 279.5,-1173 279.5,-1167 285.5,-1161 291.5,-1161 291.5,-1161 330.75,-1161 330.75,-1161 336.75,-1161 342.75,-1167 342.75,-1173 342.75,-1173 342.75,-1185 342.75,-1185 342.75,-1191 336.75,-1197 330.75,-1197"/>
<text text-anchor="middle" x="311.12" y="-1173.58" font-family="Arial" font-size="14.00">latex&#45;bc</text>
</g>
<!-- latex&#45;b -->
<g id="node19" class="node">
<title>latex&#45;b</title>
<path fill="#fcbba1" stroke="black" stroke-width="0" d="M464.88,-1251C464.88,-1251 432.38,-1251 432.38,-1251 426.38,-1251 420.38,-1245 420.38,-1239 420.38,-1239 420.38,-1227 420.38,-1227 420.38,-1221 426.38,-1215 432.38,-1215 432.38,-1215 464.88,-1215 464.88,-1215 470.88,-1215 476.88,-1221 476.88,-1227 476.88,-1227 476.88,-1239 476.88,-1239 476.88,-1245 470.88,-1251 464.88,-1251"/>
<text text-anchor="middle" x="448.62" y="-1227.58" font-family="Arial" font-size="14.00">latex&#45;b</text>
</g>
<!-- latex&#45;bc&#45;&gt;latex&#45;b -->
<g id="edge11" class="edge">
<title>latex&#45;bc&#45;&gt;latex&#45;b</title>
<path fill="none" stroke="black" d="M353.17,-1195.36C375.01,-1204.06 401.26,-1214.52 420.53,-1222.2"/>
<polygon fill="black" stroke="black" points="354.53,-1192.13 343.94,-1191.68 351.93,-1198.63 354.53,-1192.13"/>
</g>
<!-- tex&#45;bc -->
<g id="node71" class="node">
<title>tex&#45;bc</title>
<path fill="#fff5f0" stroke="black" stroke-width="0" d="M463.62,-1197C463.62,-1197 433.62,-1197 433.62,-1197 427.62,-1197 421.62,-1191 421.62,-1185 421.62,-1185 421.62,-1173 421.62,-1173 421.62,-1167 427.62,-1161 433.62,-1161 433.62,-1161 463.62,-1161 463.62,-1161 469.62,-1161 475.62,-1167 475.62,-1173 475.62,-1173 475.62,-1185 475.62,-1185 475.62,-1191 469.62,-1197 463.62,-1197"/>
<text text-anchor="middle" x="448.62" y="-1173.58" font-family="Arial" font-size="14.00">tex&#45;bc</text>
</g>
<!-- latex&#45;bc&#45;&gt;tex&#45;bc -->
<g id="edge64" class="edge">
<title>latex&#45;bc&#45;&gt;tex&#45;bc</title>
<path fill="none" stroke="black" d="M354,-1179C376.19,-1179 402.73,-1179 421.87,-1179"/>
<polygon fill="black" stroke="black" points="354.05,-1175.5 344.05,-1179 354.05,-1182.5 354.05,-1175.5"/>
</g>
<!-- tex&#45;b -->
<g id="node70" class="node">
<title>tex&#45;b</title>
<path fill="#fff5f0" stroke="black" stroke-width="0" d="M601.5,-1251C601.5,-1251 571.5,-1251 571.5,-1251 565.5,-1251 559.5,-1245 559.5,-1239 559.5,-1239 559.5,-1227 559.5,-1227 559.5,-1221 565.5,-1215 571.5,-1215 571.5,-1215 601.5,-1215 601.5,-1215 607.5,-1215 613.5,-1221 613.5,-1227 613.5,-1227 613.5,-1239 613.5,-1239 613.5,-1245 607.5,-1251 601.5,-1251"/>
<text text-anchor="middle" x="586.5" y="-1227.58" font-family="Arial" font-size="14.00">tex&#45;b</text>
</g>
<!-- latex&#45;b&#45;&gt;tex&#45;b -->
<g id="edge63" class="edge">
<title>latex&#45;b&#45;&gt;tex&#45;b</title>
<path fill="none" stroke="black" d="M488.2,-1233C511.12,-1233 539.56,-1233 559.76,-1233"/>
<polygon fill="black" stroke="black" points="488.31,-1229.5 478.31,-1233 488.31,-1236.5 488.31,-1229.5"/>
</g>
<!-- latex&#45;c&#45;&gt;latex&#45;bc -->
<g id="edge12" class="edge">
<title>latex&#45;c&#45;&gt;latex&#45;bc</title>
<path fill="none" stroke="black" d="M219.44,-1140.74C238.61,-1148.83 261.67,-1158.56 279.74,-1166.18"/>
<polygon fill="black" stroke="black" points="220.93,-1137.57 210.35,-1136.91 218.21,-1144.02 220.93,-1137.57"/>
</g>
<!-- latex -->
<g id="node25" class="node">
<title>latex</title>
<path fill="#fc9272" stroke="black" stroke-width="0" d="M326.12,-1143C326.12,-1143 296.12,-1143 296.12,-1143 290.12,-1143 284.12,-1137 284.12,-1131 284.12,-1131 284.12,-1119 284.12,-1119 284.12,-1113 290.12,-1107 296.12,-1107 296.12,-1107 326.12,-1107 326.12,-1107 332.12,-1107 338.12,-1113 338.12,-1119 338.12,-1119 338.12,-1131 338.12,-1131 338.12,-1137 332.12,-1143 326.12,-1143"/>
<text text-anchor="middle" x="311.12" y="-1119.58" font-family="Arial" font-size="14.00">latex</text>
</g>
<!-- latex&#45;c&#45;&gt;latex -->
<g id="edge18" class="edge">
<title>latex&#45;c&#45;&gt;latex</title>
<path fill="none" stroke="black" d="M220.22,-1125C240.86,-1125 265.82,-1125 284.2,-1125"/>
<polygon fill="black" stroke="black" points="220.47,-1121.5 210.47,-1125 220.47,-1128.5 220.47,-1121.5"/>
</g>
<!-- tex&#45;c -->
<g id="node74" class="node">
<title>tex&#45;c</title>
<path fill="#fff5f0" stroke="black" stroke-width="0" d="M326.12,-1089C326.12,-1089 296.12,-1089 296.12,-1089 290.12,-1089 284.12,-1083 284.12,-1077 284.12,-1077 284.12,-1065 284.12,-1065 284.12,-1059 290.12,-1053 296.12,-1053 296.12,-1053 326.12,-1053 326.12,-1053 332.12,-1053 338.12,-1059 338.12,-1065 338.12,-1065 338.12,-1077 338.12,-1077 338.12,-1083 332.12,-1089 326.12,-1089"/>
<text text-anchor="middle" x="311.12" y="-1065.58" font-family="Arial" font-size="14.00">tex&#45;c</text>
</g>
<!-- latex&#45;c&#45;&gt;tex&#45;c -->
<g id="edge67" class="edge">
<title>latex&#45;c&#45;&gt;tex&#45;c</title>
<path fill="none" stroke="black" d="M219.36,-1109.29C240.16,-1100.52 265.57,-1089.8 284.2,-1081.94"/>
<polygon fill="black" stroke="black" points="218.21,-1105.98 210.35,-1113.09 220.93,-1112.43 218.21,-1105.98"/>
</g>
<!-- latex&#45;bce -->
<g id="node22" class="node">
<title>latex&#45;bce</title>
<path fill="#fee0d2" stroke="black" stroke-width="0" d="M472,-1791C472,-1791 425.25,-1791 425.25,-1791 419.25,-1791 413.25,-1785 413.25,-1779 413.25,-1779 413.25,-1767 413.25,-1767 413.25,-1761 419.25,-1755 425.25,-1755 425.25,-1755 472,-1755 472,-1755 478,-1755 484,-1761 484,-1767 484,-1767 484,-1779 484,-1779 484,-1785 478,-1791 472,-1791"/>
<text text-anchor="middle" x="448.62" y="-1767.58" font-family="Arial" font-size="14.00">latex&#45;bce</text>
</g>
<!-- latex&#45;ce&#45;&gt;latex&#45;bce -->
<g id="edge13" class="edge">
<title>latex&#45;ce&#45;&gt;latex&#45;bce</title>
<path fill="none" stroke="black" d="M352.12,-1657.77C354.96,-1659.99 357.64,-1662.4 360,-1665 386.5,-1694.15 369.04,-1717.27 396,-1746 400.91,-1751.24 407.07,-1755.65 413.41,-1759.28"/>
<polygon fill="black" stroke="black" points="354.1,-1654.89 343.86,-1652.16 350.17,-1660.68 354.1,-1654.89"/>
</g>
<!-- latex&#45;e -->
<g id="node24" class="node">
<title>latex&#45;e</title>
<path fill="#fcbba1" stroke="black" stroke-width="0" d="M464.88,-1737C464.88,-1737 432.38,-1737 432.38,-1737 426.38,-1737 420.38,-1731 420.38,-1725 420.38,-1725 420.38,-1713 420.38,-1713 420.38,-1707 426.38,-1701 432.38,-1701 432.38,-1701 464.88,-1701 464.88,-1701 470.88,-1701 476.88,-1707 476.88,-1713 476.88,-1713 476.88,-1725 476.88,-1725 476.88,-1731 470.88,-1737 464.88,-1737"/>
<text text-anchor="middle" x="448.62" y="-1713.58" font-family="Arial" font-size="14.00">latex&#45;e</text>
</g>
<!-- latex&#45;ce&#45;&gt;latex&#45;e -->
<g id="edge17" class="edge">
<title>latex&#45;ce&#45;&gt;latex&#45;e</title>
<path fill="none" stroke="black" d="M352.26,-1660.12C354.9,-1661.73 357.5,-1663.37 360,-1665 376.75,-1675.94 379.08,-1681.33 396,-1692 403.79,-1696.91 412.56,-1701.74 420.63,-1705.93"/>
<polygon fill="black" stroke="black" points="354.31,-1657.26 343.92,-1655.18 350.74,-1663.29 354.31,-1657.26"/>
</g>
<!-- tex&#45;ce -->
<g id="node75" class="node">
<title>tex&#45;ce</title>
<path fill="#fff5f0" stroke="black" stroke-width="0" d="M463.62,-1683C463.62,-1683 433.62,-1683 433.62,-1683 427.62,-1683 421.62,-1677 421.62,-1671 421.62,-1671 421.62,-1659 421.62,-1659 421.62,-1653 427.62,-1647 433.62,-1647 433.62,-1647 463.62,-1647 463.62,-1647 469.62,-1647 475.62,-1653 475.62,-1659 475.62,-1659 475.62,-1671 475.62,-1671 475.62,-1677 469.62,-1683 463.62,-1683"/>
<text text-anchor="middle" x="448.62" y="-1659.58" font-family="Arial" font-size="14.00">tex&#45;ce</text>
</g>
<!-- latex&#45;ce&#45;&gt;tex&#45;ce -->
<g id="edge68" class="edge">
<title>latex&#45;ce&#45;&gt;tex&#45;ce</title>
<path fill="none" stroke="black" d="M353.7,-1646.28C375.94,-1650.72 402.64,-1656.04 421.87,-1659.87"/>
<polygon fill="black" stroke="black" points="354.51,-1642.88 344.02,-1644.36 353.14,-1649.74 354.51,-1642.88"/>
</g>
<!-- latex&#45;be -->
<g id="node23" class="node">
<title>latex&#45;be</title>
<path fill="#fcbba1" stroke="black" stroke-width="0" d="M606.5,-1845C606.5,-1845 566.5,-1845 566.5,-1845 560.5,-1845 554.5,-1839 554.5,-1833 554.5,-1833 554.5,-1821 554.5,-1821 554.5,-1815 560.5,-1809 566.5,-1809 566.5,-1809 606.5,-1809 606.5,-1809 612.5,-1809 618.5,-1815 618.5,-1821 618.5,-1821 618.5,-1833 618.5,-1833 618.5,-1839 612.5,-1845 606.5,-1845"/>
<text text-anchor="middle" x="586.5" y="-1821.58" font-family="Arial" font-size="14.00">latex&#45;be</text>
</g>
<!-- latex&#45;bce&#45;&gt;latex&#45;be -->
<g id="edge14" class="edge">
<title>latex&#45;bce&#45;&gt;latex&#45;be</title>
<path fill="none" stroke="black" d="M494.56,-1790.86C514.37,-1798.73 537.13,-1807.78 554.93,-1814.85"/>
<polygon fill="black" stroke="black" points="495.9,-1787.63 485.32,-1787.19 493.32,-1794.13 495.9,-1787.63"/>
</g>
<!-- tex&#45;bce -->
<g id="node72" class="node">
<title>tex&#45;bce</title>
<path fill="#fff5f0" stroke="black" stroke-width="0" d="M604.62,-1791C604.62,-1791 568.38,-1791 568.38,-1791 562.38,-1791 556.38,-1785 556.38,-1779 556.38,-1779 556.38,-1767 556.38,-1767 556.38,-1761 562.38,-1755 568.38,-1755 568.38,-1755 604.62,-1755 604.62,-1755 610.62,-1755 616.62,-1761 616.62,-1767 616.62,-1767 616.62,-1779 616.62,-1779 616.62,-1785 610.62,-1791 604.62,-1791"/>
<text text-anchor="middle" x="586.5" y="-1767.58" font-family="Arial" font-size="14.00">tex&#45;bce</text>
</g>
<!-- latex&#45;bce&#45;&gt;tex&#45;bce -->
<g id="edge65" class="edge">
<title>latex&#45;bce&#45;&gt;tex&#45;bce</title>
<path fill="none" stroke="black" d="M495.16,-1773C515.51,-1773 538.87,-1773 556.74,-1773"/>
<polygon fill="black" stroke="black" points="495.43,-1769.5 485.43,-1773 495.43,-1776.5 495.43,-1769.5"/>
</g>
<!-- tex&#45;be -->
<g id="node73" class="node">
<title>tex&#45;be</title>
<path fill="#fff5f0" stroke="black" stroke-width="0" d="M715.75,-1845C715.75,-1845 685.75,-1845 685.75,-1845 679.75,-1845 673.75,-1839 673.75,-1833 673.75,-1833 673.75,-1821 673.75,-1821 673.75,-1815 679.75,-1809 685.75,-1809 685.75,-1809 715.75,-1809 715.75,-1809 721.75,-1809 727.75,-1815 727.75,-1821 727.75,-1821 727.75,-1833 727.75,-1833 727.75,-1839 721.75,-1845 715.75,-1845"/>
<text text-anchor="middle" x="700.75" y="-1821.58" font-family="Arial" font-size="14.00">tex&#45;be</text>
</g>
<!-- latex&#45;be&#45;&gt;tex&#45;be -->
<g id="edge66" class="edge">
<title>latex&#45;be&#45;&gt;tex&#45;be</title>
<path fill="none" stroke="black" d="M629.93,-1827C644.69,-1827 660.8,-1827 673.81,-1827"/>
<polygon fill="black" stroke="black" points="629.98,-1823.5 619.98,-1827 629.98,-1830.5 629.98,-1823.5"/>
</g>
<!-- tex&#45;e -->
<g id="node76" class="node">
<title>tex&#45;e</title>
<path fill="#fff5f0" stroke="black" stroke-width="0" d="M601.5,-1737C601.5,-1737 571.5,-1737 571.5,-1737 565.5,-1737 559.5,-1731 559.5,-1725 559.5,-1725 559.5,-1713 559.5,-1713 559.5,-1707 565.5,-1701 571.5,-1701 571.5,-1701 601.5,-1701 601.5,-1701 607.5,-1701 613.5,-1707 613.5,-1713 613.5,-1713 613.5,-1725 613.5,-1725 613.5,-1731 607.5,-1737 601.5,-1737"/>
<text text-anchor="middle" x="586.5" y="-1713.58" font-family="Arial" font-size="14.00">tex&#45;e</text>
</g>
<!-- latex&#45;e&#45;&gt;tex&#45;e -->
<g id="edge69" class="edge">
<title>latex&#45;e&#45;&gt;tex&#45;e</title>
<path fill="none" stroke="black" d="M488.2,-1719C511.12,-1719 539.56,-1719 559.76,-1719"/>
<polygon fill="black" stroke="black" points="488.31,-1715.5 478.31,-1719 488.31,-1722.5 488.31,-1715.5"/>
</g>
<!-- tex -->
<g id="node77" class="node">
<title>tex</title>
<path fill="#fff5f0" stroke="black" stroke-width="0" d="M463.62,-1143C463.62,-1143 433.62,-1143 433.62,-1143 427.62,-1143 421.62,-1137 421.62,-1131 421.62,-1131 421.62,-1119 421.62,-1119 421.62,-1113 427.62,-1107 433.62,-1107 433.62,-1107 463.62,-1107 463.62,-1107 469.62,-1107 475.62,-1113 475.62,-1119 475.62,-1119 475.62,-1131 475.62,-1131 475.62,-1137 469.62,-1143 463.62,-1143"/>
<text text-anchor="middle" x="448.62" y="-1119.58" font-family="Arial" font-size="14.00">tex</text>
</g>
<!-- latex&#45;&gt;tex -->
<g id="edge70" class="edge">
<title>latex&#45;&gt;tex</title>
<path fill="none" stroke="black" d="M349.36,-1125C372.41,-1125 401.41,-1125 421.92,-1125"/>
<polygon fill="black" stroke="black" points="349.44,-1121.5 339.44,-1125 349.44,-1128.5 349.44,-1121.5"/>
</g>
<!-- markdown&#45;bc -->
<g id="node26" class="node">
<title>markdown&#45;bc</title>
<path fill="#fff5f0" stroke="black" stroke-width="0" d="M348,-1035C348,-1035 274.25,-1035 274.25,-1035 268.25,-1035 262.25,-1029 262.25,-1023 262.25,-1023 262.25,-1011 262.25,-1011 262.25,-1005 268.25,-999 274.25,-999 274.25,-999 348,-999 348,-999 354,-999 360,-1005 360,-1011 360,-1011 360,-1023 360,-1023 360,-1029 354,-1035 348,-1035"/>
<text text-anchor="middle" x="311.12" y="-1011.58" font-family="Arial" font-size="14.00">markdown&#45;bc</text>
</g>
<!-- markdown&#45;b -->
<g id="node27" class="node">
<title>markdown&#45;b</title>
<path fill="#fcbba1" stroke="black" stroke-width="0" d="M482.12,-1089C482.12,-1089 415.12,-1089 415.12,-1089 409.12,-1089 403.12,-1083 403.12,-1077 403.12,-1077 403.12,-1065 403.12,-1065 403.12,-1059 409.12,-1053 415.12,-1053 415.12,-1053 482.12,-1053 482.12,-1053 488.12,-1053 494.12,-1059 494.12,-1065 494.12,-1065 494.12,-1077 494.12,-1077 494.12,-1083 488.12,-1089 482.12,-1089"/>
<text text-anchor="middle" x="448.62" y="-1065.58" font-family="Arial" font-size="14.00">markdown&#45;b</text>
</g>
<!-- markdown&#45;bc&#45;&gt;markdown&#45;b -->
<g id="edge19" class="edge">
<title>markdown&#45;bc&#45;&gt;markdown&#45;b</title>
<path fill="none" stroke="black" d="M367.86,-1039.21C379.62,-1043.9 391.88,-1048.79 403.16,-1053.28"/>
<polygon fill="black" stroke="black" points="369.24,-1035.99 358.65,-1035.54 366.64,-1042.5 369.24,-1035.99"/>
</g>
<!-- md&#45;bc -->
<g id="node35" class="node">
<title>md&#45;bc</title>
<path fill="#fff5f0" stroke="black" stroke-width="0" d="M463.75,-1035C463.75,-1035 433.5,-1035 433.5,-1035 427.5,-1035 421.5,-1029 421.5,-1023 421.5,-1023 421.5,-1011 421.5,-1011 421.5,-1005 427.5,-999 433.5,-999 433.5,-999 463.75,-999 463.75,-999 469.75,-999 475.75,-1005 475.75,-1011 475.75,-1011 475.75,-1023 475.75,-1023 475.75,-1029 469.75,-1035 463.75,-1035"/>
<text text-anchor="middle" x="448.62" y="-1011.58" font-family="Arial" font-size="14.00">md&#45;bc</text>
</g>
<!-- markdown&#45;bc&#45;&gt;md&#45;bc -->
<g id="edge28" class="edge">
<title>markdown&#45;bc&#45;&gt;md&#45;bc</title>
<path fill="none" stroke="black" d="M371.28,-1017C388.86,-1017 407.22,-1017 421.53,-1017"/>
<polygon fill="black" stroke="black" points="371.41,-1013.5 361.41,-1017 371.41,-1020.5 371.41,-1013.5"/>
</g>
<!-- mld&#45;bc -->
<g id="node43" class="node">
<title>mld&#45;bc</title>
<path fill="#fff5f0" stroke="black" stroke-width="0" d="M465.25,-981C465.25,-981 432,-981 432,-981 426,-981 420,-975 420,-969 420,-969 420,-957 420,-957 420,-951 426,-945 432,-945 432,-945 465.25,-945 465.25,-945 471.25,-945 477.25,-951 477.25,-957 477.25,-957 477.25,-969 477.25,-969 477.25,-975 471.25,-981 465.25,-981"/>
<text text-anchor="middle" x="448.62" y="-957.58" font-family="Arial" font-size="14.00">mld&#45;bc</text>
</g>
<!-- markdown&#45;bc&#45;&gt;mld&#45;bc -->
<g id="edge36" class="edge">
<title>markdown&#45;bc&#45;&gt;mld&#45;bc</title>
<path fill="none" stroke="black" d="M367.69,-994.85C385.74,-987.66 404.99,-979.99 420.07,-973.98"/>
<polygon fill="black" stroke="black" points="366.64,-991.5 358.65,-998.46 369.24,-998.01 366.64,-991.5"/>
</g>
<!-- md&#45;b -->
<g id="node34" class="node">
<title>md&#45;b</title>
<path fill="#fff5f0" stroke="black" stroke-width="0" d="M601.5,-1116C601.5,-1116 571.5,-1116 571.5,-1116 565.5,-1116 559.5,-1110 559.5,-1104 559.5,-1104 559.5,-1092 559.5,-1092 559.5,-1086 565.5,-1080 571.5,-1080 571.5,-1080 601.5,-1080 601.5,-1080 607.5,-1080 613.5,-1086 613.5,-1092 613.5,-1092 613.5,-1104 613.5,-1104 613.5,-1110 607.5,-1116 601.5,-1116"/>
<text text-anchor="middle" x="586.5" y="-1092.58" font-family="Arial" font-size="14.00">md&#45;b</text>
</g>
<!-- markdown&#45;b&#45;&gt;md&#45;b -->
<g id="edge27" class="edge">
<title>markdown&#45;b&#45;&gt;md&#45;b</title>
<path fill="none" stroke="black" d="M505.29,-1082.06C524.09,-1085.8 544.19,-1089.79 559.56,-1092.85"/>
<polygon fill="black" stroke="black" points="506.09,-1078.65 495.6,-1080.14 504.73,-1085.52 506.09,-1078.65"/>
</g>
<!-- mld&#45;b -->
<g id="node42" class="node">
<title>mld&#45;b</title>
<path fill="#fff5f0" stroke="black" stroke-width="0" d="M601.5,-1062C601.5,-1062 571.5,-1062 571.5,-1062 565.5,-1062 559.5,-1056 559.5,-1050 559.5,-1050 559.5,-1038 559.5,-1038 559.5,-1032 565.5,-1026 571.5,-1026 571.5,-1026 601.5,-1026 601.5,-1026 607.5,-1026 613.5,-1032 613.5,-1038 613.5,-1038 613.5,-1050 613.5,-1050 613.5,-1056 607.5,-1062 601.5,-1062"/>
<text text-anchor="middle" x="586.5" y="-1038.58" font-family="Arial" font-size="14.00">mld&#45;b</text>
</g>
<!-- markdown&#45;b&#45;&gt;mld&#45;b -->
<g id="edge35" class="edge">
<title>markdown&#45;b&#45;&gt;mld&#45;b</title>
<path fill="none" stroke="black" d="M505.29,-1059.94C524.09,-1056.2 544.19,-1052.21 559.56,-1049.15"/>
<polygon fill="black" stroke="black" points="504.73,-1056.48 495.6,-1061.86 506.09,-1063.35 504.73,-1056.48"/>
</g>
<!-- markdown&#45;c&#45;&gt;markdown&#45;bc -->
<g id="edge20" class="edge">
<title>markdown&#45;c&#45;&gt;markdown&#45;bc</title>
<path fill="none" stroke="black" d="M235.34,-985.45C246.13,-990 257.34,-994.73 267.69,-999.1"/>
<polygon fill="black" stroke="black" points="236.72,-982.23 226.14,-981.57 233.99,-988.68 236.72,-982.23"/>
</g>
<!-- markdown -->
<g id="node33" class="node">
<title>markdown</title>
<path fill="#fc9272" stroke="black" stroke-width="0" d="M338.62,-981C338.62,-981 283.62,-981 283.62,-981 277.62,-981 271.62,-975 271.62,-969 271.62,-969 271.62,-957 271.62,-957 271.62,-951 277.62,-945 283.62,-945 283.62,-945 338.62,-945 338.62,-945 344.62,-945 350.62,-951 350.62,-957 350.62,-957 350.62,-969 350.62,-969 350.62,-975 344.62,-981 338.62,-981"/>
<text text-anchor="middle" x="311.12" y="-957.58" font-family="Arial" font-size="14.00">markdown</text>
</g>
<!-- markdown&#45;c&#45;&gt;markdown -->
<g id="edge26" class="edge">
<title>markdown&#45;c&#45;&gt;markdown</title>
<path fill="none" stroke="black" d="M237.59,-963C249.19,-963 261.17,-963 271.97,-963"/>
<polygon fill="black" stroke="black" points="237.69,-959.5 227.69,-963 237.69,-966.5 237.69,-959.5"/>
</g>
<!-- md&#45;c -->
<g id="node38" class="node">
<title>md&#45;c</title>
<path fill="#fff5f0" stroke="black" stroke-width="0" d="M326.12,-927C326.12,-927 296.12,-927 296.12,-927 290.12,-927 284.12,-921 284.12,-915 284.12,-915 284.12,-903 284.12,-903 284.12,-897 290.12,-891 296.12,-891 296.12,-891 326.12,-891 326.12,-891 332.12,-891 338.12,-897 338.12,-903 338.12,-903 338.12,-915 338.12,-915 338.12,-921 332.12,-927 326.12,-927"/>
<text text-anchor="middle" x="311.12" y="-903.58" font-family="Arial" font-size="14.00">md&#45;c</text>
</g>
<!-- markdown&#45;c&#45;&gt;md&#45;c -->
<g id="edge31" class="edge">
<title>markdown&#45;c&#45;&gt;md&#45;c</title>
<path fill="none" stroke="black" d="M235.17,-940.62C252.22,-933.43 270.32,-925.79 284.47,-919.82"/>
<polygon fill="black" stroke="black" points="233.99,-937.32 226.14,-944.43 236.72,-943.77 233.99,-937.32"/>
</g>
<!-- mld&#45;c -->
<g id="node46" class="node">
<title>mld&#45;c</title>
<path fill="#fff5f0" stroke="black" stroke-width="0" d="M326.12,-873C326.12,-873 296.12,-873 296.12,-873 290.12,-873 284.12,-867 284.12,-861 284.12,-861 284.12,-849 284.12,-849 284.12,-843 290.12,-837 296.12,-837 296.12,-837 326.12,-837 326.12,-837 332.12,-837 338.12,-843 338.12,-849 338.12,-849 338.12,-861 338.12,-861 338.12,-867 332.12,-873 326.12,-873"/>
<text text-anchor="middle" x="311.12" y="-849.58" font-family="Arial" font-size="14.00">mld&#45;c</text>
</g>
<!-- markdown&#45;c&#45;&gt;mld&#45;c -->
<g id="edge39" class="edge">
<title>markdown&#45;c&#45;&gt;mld&#45;c</title>
<path fill="none" stroke="black" d="M204.55,-936.83C219.78,-919.97 240.96,-898.25 262.25,-882 269.08,-876.79 277.02,-871.9 284.45,-867.76"/>
<polygon fill="black" stroke="black" points="202.19,-934.22 198.16,-944.02 207.42,-938.87 202.19,-934.22"/>
</g>
<!-- markdown&#45;bce -->
<g id="node30" class="node">
<title>markdown&#45;bce</title>
<path fill="#fff5f0" stroke="black" stroke-width="0" d="M489.25,-1629C489.25,-1629 408,-1629 408,-1629 402,-1629 396,-1623 396,-1617 396,-1617 396,-1605 396,-1605 396,-1599 402,-1593 408,-1593 408,-1593 489.25,-1593 489.25,-1593 495.25,-1593 501.25,-1599 501.25,-1605 501.25,-1605 501.25,-1617 501.25,-1617 501.25,-1623 495.25,-1629 489.25,-1629"/>
<text text-anchor="middle" x="448.62" y="-1605.58" font-family="Arial" font-size="14.00">markdown&#45;bce</text>
</g>
<!-- markdown&#45;ce&#45;&gt;markdown&#45;bce -->
<g id="edge21" class="edge">
<title>markdown&#45;ce&#45;&gt;markdown&#45;bce</title>
<path fill="none" stroke="black" d="M367.75,-1579.17C379.39,-1583.81 391.51,-1588.64 402.7,-1593.1"/>
<polygon fill="black" stroke="black" points="369.24,-1575.99 358.65,-1575.54 366.64,-1582.5 369.24,-1575.99"/>
</g>
<!-- markdown&#45;e -->
<g id="node32" class="node">
<title>markdown&#45;e</title>
<path fill="#fcbba1" stroke="black" stroke-width="0" d="M482.12,-1575C482.12,-1575 415.12,-1575 415.12,-1575 409.12,-1575 403.12,-1569 403.12,-1563 403.12,-1563 403.12,-1551 403.12,-1551 403.12,-1545 409.12,-1539 415.12,-1539 415.12,-1539 482.12,-1539 482.12,-1539 488.12,-1539 494.12,-1545 494.12,-1551 494.12,-1551 494.12,-1563 494.12,-1563 494.12,-1569 488.12,-1575 482.12,-1575"/>
<text text-anchor="middle" x="448.62" y="-1551.58" font-family="Arial" font-size="14.00">markdown&#45;e</text>
</g>
<!-- markdown&#45;ce&#45;&gt;markdown&#45;e -->
<g id="edge25" class="edge">
<title>markdown&#45;ce&#45;&gt;markdown&#45;e</title>
<path fill="none" stroke="black" d="M371.41,-1557C382.17,-1557 393.22,-1557 403.45,-1557"/>
<polygon fill="black" stroke="black" points="371.41,-1553.5 361.41,-1557 371.41,-1560.5 371.41,-1553.5"/>
</g>
<!-- md&#45;ce -->
<g id="node39" class="node">
<title>md&#45;ce</title>
<path fill="#fff5f0" stroke="black" stroke-width="0" d="M463.75,-1521C463.75,-1521 433.5,-1521 433.5,-1521 427.5,-1521 421.5,-1515 421.5,-1509 421.5,-1509 421.5,-1497 421.5,-1497 421.5,-1491 427.5,-1485 433.5,-1485 433.5,-1485 463.75,-1485 463.75,-1485 469.75,-1485 475.75,-1491 475.75,-1497 475.75,-1497 475.75,-1509 475.75,-1509 475.75,-1515 469.75,-1521 463.75,-1521"/>
<text text-anchor="middle" x="448.62" y="-1497.58" font-family="Arial" font-size="14.00">md&#45;ce</text>
</g>
<!-- markdown&#45;ce&#45;&gt;md&#45;ce -->
<g id="edge32" class="edge">
<title>markdown&#45;ce&#45;&gt;md&#45;ce</title>
<path fill="none" stroke="black" d="M367.75,-1534.83C386.42,-1527.39 406.37,-1519.44 421.66,-1513.35"/>
<polygon fill="black" stroke="black" points="366.64,-1531.5 358.65,-1538.46 369.24,-1538.01 366.64,-1531.5"/>
</g>
<!-- mld&#45;ce -->
<g id="node47" class="node">
<title>mld&#45;ce</title>
<path fill="#fff5f0" stroke="black" stroke-width="0" d="M465.25,-1467C465.25,-1467 432,-1467 432,-1467 426,-1467 420,-1461 420,-1455 420,-1455 420,-1443 420,-1443 420,-1437 426,-1431 432,-1431 432,-1431 465.25,-1431 465.25,-1431 471.25,-1431 477.25,-1437 477.25,-1443 477.25,-1443 477.25,-1455 477.25,-1455 477.25,-1461 471.25,-1467 465.25,-1467"/>
<text text-anchor="middle" x="448.62" y="-1443.58" font-family="Arial" font-size="14.00">mld&#45;ce</text>
</g>
<!-- markdown&#45;ce&#45;&gt;mld&#45;ce -->
<g id="edge40" class="edge">
<title>markdown&#45;ce&#45;&gt;mld&#45;ce</title>
<path fill="none" stroke="black" d="M335.63,-1530.68C351.59,-1513.77 373.77,-1492.04 396,-1476 403.46,-1470.62 412.15,-1465.65 420.23,-1461.48"/>
<polygon fill="black" stroke="black" points="333.15,-1528.21 328.91,-1537.93 338.28,-1532.98 333.15,-1528.21"/>
</g>
<!-- markdown&#45;be -->
<g id="node31" class="node">
<title>markdown&#45;be</title>
<path fill="#fcbba1" stroke="black" stroke-width="0" d="M623.75,-1683C623.75,-1683 549.25,-1683 549.25,-1683 543.25,-1683 537.25,-1677 537.25,-1671 537.25,-1671 537.25,-1659 537.25,-1659 537.25,-1653 543.25,-1647 549.25,-1647 549.25,-1647 623.75,-1647 623.75,-1647 629.75,-1647 635.75,-1653 635.75,-1659 635.75,-1659 635.75,-1671 635.75,-1671 635.75,-1677 629.75,-1683 623.75,-1683"/>
<text text-anchor="middle" x="586.5" y="-1659.58" font-family="Arial" font-size="14.00">markdown&#45;be</text>
</g>
<!-- markdown&#45;bce&#45;&gt;markdown&#45;be -->
<g id="edge22" class="edge">
<title>markdown&#45;bce&#45;&gt;markdown&#45;be</title>
<path fill="none" stroke="black" d="M505.4,-1633.17C517.07,-1637.81 529.23,-1642.64 540.45,-1647.1"/>
<polygon fill="black" stroke="black" points="506.86,-1629.98 496.28,-1629.54 504.28,-1636.49 506.86,-1629.98"/>
</g>
<!-- md&#45;bce -->
<g id="node36" class="node">
<title>md&#45;bce</title>
<path fill="#fff5f0" stroke="black" stroke-width="0" d="M605.38,-1629C605.38,-1629 567.62,-1629 567.62,-1629 561.62,-1629 555.62,-1623 555.62,-1617 555.62,-1617 555.62,-1605 555.62,-1605 555.62,-1599 561.62,-1593 567.62,-1593 567.62,-1593 605.38,-1593 605.38,-1593 611.38,-1593 617.38,-1599 617.38,-1605 617.38,-1605 617.38,-1617 617.38,-1617 617.38,-1623 611.38,-1629 605.38,-1629"/>
<text text-anchor="middle" x="586.5" y="-1605.58" font-family="Arial" font-size="14.00">md&#45;bce</text>
</g>
<!-- markdown&#45;bce&#45;&gt;md&#45;bce -->
<g id="edge29" class="edge">
<title>markdown&#45;bce&#45;&gt;md&#45;bce</title>
<path fill="none" stroke="black" d="M512.43,-1611C527.53,-1611 542.97,-1611 555.74,-1611"/>
<polygon fill="black" stroke="black" points="512.51,-1607.5 502.51,-1611 512.51,-1614.5 512.51,-1607.5"/>
</g>
<!-- mld&#45;bce -->
<g id="node44" class="node">
<title>mld&#45;bce</title>
<path fill="#fff5f0" stroke="black" stroke-width="0" d="M606.88,-1575C606.88,-1575 566.12,-1575 566.12,-1575 560.12,-1575 554.12,-1569 554.12,-1563 554.12,-1563 554.12,-1551 554.12,-1551 554.12,-1545 560.12,-1539 566.12,-1539 566.12,-1539 606.88,-1539 606.88,-1539 612.88,-1539 618.88,-1545 618.88,-1551 618.88,-1551 618.88,-1563 618.88,-1563 618.88,-1569 612.88,-1575 606.88,-1575"/>
<text text-anchor="middle" x="586.5" y="-1551.58" font-family="Arial" font-size="14.00">mld&#45;bce</text>
</g>
<!-- markdown&#45;bce&#45;&gt;mld&#45;bce -->
<g id="edge37" class="edge">
<title>markdown&#45;bce&#45;&gt;mld&#45;bce</title>
<path fill="none" stroke="black" d="M505.11,-1588.95C521.84,-1582.3 539.61,-1575.24 554.17,-1569.45"/>
<polygon fill="black" stroke="black" points="504.28,-1585.51 496.28,-1592.46 506.86,-1592.02 504.28,-1585.51"/>
</g>
<!-- md&#45;be -->
<g id="node37" class="node">
<title>md&#45;be</title>
<path fill="#fff5f0" stroke="black" stroke-width="0" d="M716.25,-1710C716.25,-1710 685.25,-1710 685.25,-1710 679.25,-1710 673.25,-1704 673.25,-1698 673.25,-1698 673.25,-1686 673.25,-1686 673.25,-1680 679.25,-1674 685.25,-1674 685.25,-1674 716.25,-1674 716.25,-1674 722.25,-1674 728.25,-1680 728.25,-1686 728.25,-1686 728.25,-1698 728.25,-1698 728.25,-1704 722.25,-1710 716.25,-1710"/>
<text text-anchor="middle" x="700.75" y="-1686.58" font-family="Arial" font-size="14.00">md&#45;be</text>
</g>
<!-- markdown&#45;be&#45;&gt;md&#45;be -->
<g id="edge30" class="edge">
<title>markdown&#45;be&#45;&gt;md&#45;be</title>
<path fill="none" stroke="black" d="M646.47,-1679.18C655.88,-1681.45 665.19,-1683.69 673.33,-1685.65"/>
<polygon fill="black" stroke="black" points="647.44,-1675.82 636.9,-1676.88 645.81,-1682.62 647.44,-1675.82"/>
</g>
<!-- mld&#45;be -->
<g id="node45" class="node">
<title>mld&#45;be</title>
<path fill="#fff5f0" stroke="black" stroke-width="0" d="M717.75,-1656C717.75,-1656 683.75,-1656 683.75,-1656 677.75,-1656 671.75,-1650 671.75,-1644 671.75,-1644 671.75,-1632 671.75,-1632 671.75,-1626 677.75,-1620 683.75,-1620 683.75,-1620 717.75,-1620 717.75,-1620 723.75,-1620 729.75,-1626 729.75,-1632 729.75,-1632 729.75,-1644 729.75,-1644 729.75,-1650 723.75,-1656 717.75,-1656"/>
<text text-anchor="middle" x="700.75" y="-1632.58" font-family="Arial" font-size="14.00">mld&#45;be</text>
</g>
<!-- markdown&#45;be&#45;&gt;mld&#45;be -->
<g id="edge38" class="edge">
<title>markdown&#45;be&#45;&gt;mld&#45;be</title>
<path fill="none" stroke="black" d="M646.55,-1650.8C655.34,-1648.68 664.03,-1646.59 671.76,-1644.73"/>
<polygon fill="black" stroke="black" points="645.81,-1647.38 636.9,-1653.12 647.44,-1654.18 645.81,-1647.38"/>
</g>
<!-- md&#45;e -->
<g id="node40" class="node">
<title>md&#45;e</title>
<path fill="#fff5f0" stroke="black" stroke-width="0" d="M601.5,-1521C601.5,-1521 571.5,-1521 571.5,-1521 565.5,-1521 559.5,-1515 559.5,-1509 559.5,-1509 559.5,-1497 559.5,-1497 559.5,-1491 565.5,-1485 571.5,-1485 571.5,-1485 601.5,-1485 601.5,-1485 607.5,-1485 613.5,-1491 613.5,-1497 613.5,-1497 613.5,-1509 613.5,-1509 613.5,-1515 607.5,-1521 601.5,-1521"/>
<text text-anchor="middle" x="586.5" y="-1497.58" font-family="Arial" font-size="14.00">md&#45;e</text>
</g>
<!-- markdown&#45;e&#45;&gt;md&#45;e -->
<g id="edge33" class="edge">
<title>markdown&#45;e&#45;&gt;md&#45;e</title>
<path fill="none" stroke="black" d="M504.76,-1535.09C523.72,-1527.55 544.04,-1519.48 559.56,-1513.31"/>
<polygon fill="black" stroke="black" points="503.52,-1531.81 495.52,-1538.76 506.11,-1538.32 503.52,-1531.81"/>
</g>
<!-- mld&#45;e -->
<g id="node48" class="node">
<title>mld&#45;e</title>
<path fill="#fff5f0" stroke="black" stroke-width="0" d="M601.5,-1467C601.5,-1467 571.5,-1467 571.5,-1467 565.5,-1467 559.5,-1461 559.5,-1455 559.5,-1455 559.5,-1443 559.5,-1443 559.5,-1437 565.5,-1431 571.5,-1431 571.5,-1431 601.5,-1431 601.5,-1431 607.5,-1431 613.5,-1437 613.5,-1443 613.5,-1443 613.5,-1455 613.5,-1455 613.5,-1461 607.5,-1467 601.5,-1467"/>
<text text-anchor="middle" x="586.5" y="-1443.58" font-family="Arial" font-size="14.00">mld&#45;e</text>
</g>
<!-- markdown&#45;e&#45;&gt;mld&#45;e -->
<g id="edge41" class="edge">
<title>markdown&#45;e&#45;&gt;mld&#45;e</title>
<path fill="none" stroke="black" d="M498.4,-1532.43C499.38,-1531.64 500.33,-1530.83 501.25,-1530 522.7,-1510.71 516.08,-1495.59 537.25,-1476 543.87,-1469.87 552.14,-1464.6 559.95,-1460.39"/>
<polygon fill="black" stroke="black" points="496.41,-1529.55 490.3,-1538.21 500.48,-1535.25 496.41,-1529.55"/>
</g>
<!-- md -->
<g id="node41" class="node">
<title>md</title>
<path fill="#fff5f0" stroke="black" stroke-width="0" d="M463.62,-927C463.62,-927 433.62,-927 433.62,-927 427.62,-927 421.62,-921 421.62,-915 421.62,-915 421.62,-903 421.62,-903 421.62,-897 427.62,-891 433.62,-891 433.62,-891 463.62,-891 463.62,-891 469.62,-891 475.62,-897 475.62,-903 475.62,-903 475.62,-915 475.62,-915 475.62,-921 469.62,-927 463.62,-927"/>
<text text-anchor="middle" x="448.62" y="-903.58" font-family="Arial" font-size="14.00">md</text>
</g>
<!-- markdown&#45;&gt;md -->
<g id="edge34" class="edge">
<title>markdown&#45;&gt;md</title>
<path fill="none" stroke="black" d="M361.08,-943.49C381.67,-935.28 404.78,-926.08 421.93,-919.24"/>
<polygon fill="black" stroke="black" points="359.99,-940.16 352,-947.11 362.58,-946.66 359.99,-940.16"/>
</g>
<!-- mld -->
<g id="node49" class="node">
<title>mld</title>
<path fill="#fff5f0" stroke="black" stroke-width="0" d="M463.62,-873C463.62,-873 433.62,-873 433.62,-873 427.62,-873 421.62,-867 421.62,-861 421.62,-861 421.62,-849 421.62,-849 421.62,-843 427.62,-837 433.62,-837 433.62,-837 463.62,-837 463.62,-837 469.62,-837 475.62,-843 475.62,-849 475.62,-849 475.62,-861 475.62,-861 475.62,-867 469.62,-873 463.62,-873"/>
<text text-anchor="middle" x="448.62" y="-849.58" font-family="Arial" font-size="14.00">mld</text>
</g>
<!-- markdown&#45;&gt;mld -->
<g id="edge42" class="edge">
<title>markdown&#45;&gt;mld</title>
<path fill="none" stroke="black" d="M357.18,-938.48C358.15,-937.67 359.09,-936.84 360,-936 381.14,-916.38 374.55,-901.29 396,-882 403.52,-875.24 413.04,-869.64 421.86,-865.33"/>
<polygon fill="black" stroke="black" points="355.12,-935.66 349.16,-944.42 359.28,-941.28 355.12,-935.66"/>
</g>
<!-- mssql&#45;b -->
<g id="node50" class="node">
<title>mssql&#45;b</title>
<path fill="#fcbba1" stroke="black" stroke-width="0" d="M331.12,-603C331.12,-603 291.12,-603 291.12,-603 285.12,-603 279.12,-597 279.12,-591 279.12,-591 279.12,-579 279.12,-579 279.12,-573 285.12,-567 291.12,-567 291.12,-567 331.12,-567 331.12,-567 337.12,-567 343.12,-573 343.12,-579 343.12,-579 343.12,-591 343.12,-591 343.12,-597 337.12,-603 331.12,-603"/>
<text text-anchor="middle" x="311.12" y="-579.58" font-family="Arial" font-size="14.00">mssql&#45;b</text>
</g>
<!-- ms_sql&#45;b -->
<g id="node51" class="node">
<title>ms_sql&#45;b</title>
<path fill="#fff5f0" stroke="black" stroke-width="0" d="M472.38,-657C472.38,-657 424.88,-657 424.88,-657 418.88,-657 412.88,-651 412.88,-645 412.88,-645 412.88,-633 412.88,-633 412.88,-627 418.88,-621 424.88,-621 424.88,-621 472.38,-621 472.38,-621 478.38,-621 484.38,-627 484.38,-633 484.38,-633 484.38,-645 484.38,-645 484.38,-651 478.38,-657 472.38,-657"/>
<text text-anchor="middle" x="448.62" y="-633.58" font-family="Arial" font-size="14.00">ms_sql&#45;b</text>
</g>
<!-- mssql&#45;b&#45;&gt;ms_sql&#45;b -->
<g id="edge43" class="edge">
<title>mssql&#45;b&#45;&gt;ms_sql&#45;b</title>
<path fill="none" stroke="black" d="M353.4,-601.45C372.52,-609.07 394.99,-618.02 413.19,-625.28"/>
<polygon fill="black" stroke="black" points="354.86,-598.26 344.28,-597.81 352.27,-604.77 354.86,-598.26"/>
</g>
<!-- sql_server&#45;b -->
<g id="node64" class="node">
<title>sql_server&#45;b</title>
<path fill="#fff5f0" stroke="black" stroke-width="0" d="M481.75,-603C481.75,-603 415.5,-603 415.5,-603 409.5,-603 403.5,-597 403.5,-591 403.5,-591 403.5,-579 403.5,-579 403.5,-573 409.5,-567 415.5,-567 415.5,-567 481.75,-567 481.75,-567 487.75,-567 493.75,-573 493.75,-579 493.75,-579 493.75,-591 493.75,-591 493.75,-597 487.75,-603 481.75,-603"/>
<text text-anchor="middle" x="448.62" y="-579.58" font-family="Arial" font-size="14.00">sql_server&#45;b</text>
</g>
<!-- mssql&#45;b&#45;&gt;sql_server&#45;b -->
<g id="edge57" class="edge">
<title>mssql&#45;b&#45;&gt;sql_server&#45;b</title>
<path fill="none" stroke="black" d="M354.37,-585C370.03,-585 387.83,-585 403.64,-585"/>
<polygon fill="black" stroke="black" points="354.39,-581.5 344.39,-585 354.39,-588.5 354.39,-581.5"/>
</g>
<!-- sqlserver&#45;b -->
<g id="node68" class="node">
<title>sqlserver&#45;b</title>
<path fill="#fff5f0" stroke="black" stroke-width="0" d="M478,-549C478,-549 419.25,-549 419.25,-549 413.25,-549 407.25,-543 407.25,-537 407.25,-537 407.25,-525 407.25,-525 407.25,-519 413.25,-513 419.25,-513 419.25,-513 478,-513 478,-513 484,-513 490,-519 490,-525 490,-525 490,-537 490,-537 490,-543 484,-549 478,-549"/>
<text text-anchor="middle" x="448.62" y="-525.58" font-family="Arial" font-size="14.00">sqlserver&#45;b</text>
</g>
<!-- mssql&#45;b&#45;&gt;sqlserver&#45;b -->
<g id="edge61" class="edge">
<title>mssql&#45;b&#45;&gt;sqlserver&#45;b</title>
<path fill="none" stroke="black" d="M353.19,-568.63C370.41,-561.77 390.36,-553.82 407.48,-547"/>
<polygon fill="black" stroke="black" points="352.27,-565.23 344.28,-572.19 354.86,-571.74 352.27,-565.23"/>
</g>
<!-- mssql&#45;&gt;mssql&#45;b -->
<g id="edge45" class="edge">
<title>mssql&#45;&gt;mssql&#45;b</title>
<path fill="none" stroke="black" d="M217.35,-468.71C220.58,-471.24 223.62,-474.01 226.25,-477 252.23,-506.62 235.75,-528.85 262.25,-558 267,-563.23 273,-567.69 279.14,-571.39"/>
<polygon fill="black" stroke="black" points="219.39,-465.86 209.17,-463.08 215.42,-471.63 219.39,-465.86"/>
</g>
<!-- ms_sql -->
<g id="node53" class="node">
<title>ms_sql</title>
<path fill="#fff5f0" stroke="black" stroke-width="0" d="M328.88,-549C328.88,-549 293.38,-549 293.38,-549 287.38,-549 281.38,-543 281.38,-537 281.38,-537 281.38,-525 281.38,-525 281.38,-519 287.38,-513 293.38,-513 293.38,-513 328.88,-513 328.88,-513 334.88,-513 340.88,-519 340.88,-525 340.88,-525 340.88,-537 340.88,-537 340.88,-543 334.88,-549 328.88,-549"/>
<text text-anchor="middle" x="311.12" y="-525.58" font-family="Arial" font-size="14.00">ms_sql</text>
</g>
<!-- mssql&#45;&gt;ms_sql -->
<g id="edge44" class="edge">
<title>mssql&#45;&gt;ms_sql</title>
<path fill="none" stroke="black" d="M217.53,-471.26C220.5,-473.16 223.44,-475.09 226.25,-477 242.8,-488.23 245.5,-493.06 262.25,-504 268.32,-507.97 275.01,-511.96 281.41,-515.61"/>
<polygon fill="black" stroke="black" points="219.66,-468.46 209.33,-466.11 215.94,-474.39 219.66,-468.46"/>
</g>
<!-- sql_server -->
<g id="node65" class="node">
<title>sql_server</title>
<path fill="#fff5f0" stroke="black" stroke-width="0" d="M338.25,-495C338.25,-495 284,-495 284,-495 278,-495 272,-489 272,-483 272,-483 272,-471 272,-471 272,-465 278,-459 284,-459 284,-459 338.25,-459 338.25,-459 344.25,-459 350.25,-465 350.25,-471 350.25,-471 350.25,-483 350.25,-483 350.25,-489 344.25,-495 338.25,-495"/>
<text text-anchor="middle" x="311.12" y="-471.57" font-family="Arial" font-size="14.00">sql_server</text>
</g>
<!-- mssql&#45;&gt;sql_server -->
<g id="edge58" class="edge">
<title>mssql&#45;&gt;sql_server</title>
<path fill="none" stroke="black" d="M219.01,-457.78C235.67,-461.29 255.33,-465.44 272.12,-468.98"/>
<polygon fill="black" stroke="black" points="220.02,-454.42 209.51,-455.78 218.57,-461.26 220.02,-454.42"/>
</g>
<!-- sqlserver -->
<g id="node69" class="node">
<title>sqlserver</title>
<path fill="#fff5f0" stroke="black" stroke-width="0" d="M334.5,-441C334.5,-441 287.75,-441 287.75,-441 281.75,-441 275.75,-435 275.75,-429 275.75,-429 275.75,-417 275.75,-417 275.75,-411 281.75,-405 287.75,-405 287.75,-405 334.5,-405 334.5,-405 340.5,-405 346.5,-411 346.5,-417 346.5,-417 346.5,-429 346.5,-429 346.5,-435 340.5,-441 334.5,-441"/>
<text text-anchor="middle" x="311.12" y="-417.57" font-family="Arial" font-size="14.00">sqlserver</text>
</g>
<!-- mssql&#45;&gt;sqlserver -->
<g id="edge62" class="edge">
<title>mssql&#45;&gt;sqlserver</title>
<path fill="none" stroke="black" d="M219.23,-442.17C237.14,-438.39 258.5,-433.89 276,-430.2"/>
<polygon fill="black" stroke="black" points="218.57,-438.74 209.51,-444.22 220.02,-445.58 218.57,-438.74"/>
</g>
<!-- mysql&#45;b -->
<g id="node55" class="node">
<title>mysql&#45;b</title>
<path fill="#fcbba1" stroke="black" stroke-width="0" d="M331.12,-387C331.12,-387 291.12,-387 291.12,-387 285.12,-387 279.12,-381 279.12,-375 279.12,-375 279.12,-363 279.12,-363 279.12,-357 285.12,-351 291.12,-351 291.12,-351 331.12,-351 331.12,-351 337.12,-351 343.12,-357 343.12,-363 343.12,-363 343.12,-375 343.12,-375 343.12,-381 337.12,-387 331.12,-387"/>
<text text-anchor="middle" x="311.12" y="-363.57" font-family="Arial" font-size="14.00">mysql&#45;b</text>
</g>
<!-- mysql&#45;&gt;mysql&#45;b -->
<g id="edge47" class="edge">
<title>mysql&#45;&gt;mysql&#45;b</title>
<path fill="none" stroke="black" d="M219.31,-369C238.35,-369 261.25,-369 279.3,-369"/>
<polygon fill="black" stroke="black" points="219.54,-365.5 209.54,-369 219.54,-372.5 219.54,-365.5"/>
</g>
<!-- oracle&#45;b -->
<g id="node57" class="node">
<title>oracle&#45;b</title>
<path fill="#fcbba1" stroke="black" stroke-width="0" d="M331.5,-333C331.5,-333 290.75,-333 290.75,-333 284.75,-333 278.75,-327 278.75,-321 278.75,-321 278.75,-309 278.75,-309 278.75,-303 284.75,-297 290.75,-297 290.75,-297 331.5,-297 331.5,-297 337.5,-297 343.5,-303 343.5,-309 343.5,-309 343.5,-321 343.5,-321 343.5,-327 337.5,-333 331.5,-333"/>
<text text-anchor="middle" x="311.12" y="-309.57" font-family="Arial" font-size="14.00">oracle&#45;b</text>
</g>
<!-- oracle&#45;&gt;oracle&#45;b -->
<g id="edge49" class="edge">
<title>oracle&#45;&gt;oracle&#45;b</title>
<path fill="none" stroke="black" d="M219.49,-315C238.33,-315 260.92,-315 278.83,-315"/>
<polygon fill="black" stroke="black" points="219.54,-311.5 209.54,-315 219.54,-318.5 219.54,-311.5"/>
</g>
<!-- oracle_db -->
<g id="node59" class="node">
<title>oracle_db</title>
<path fill="#fff5f0" stroke="black" stroke-width="0" d="M336.75,-279C336.75,-279 285.5,-279 285.5,-279 279.5,-279 273.5,-273 273.5,-267 273.5,-267 273.5,-255 273.5,-255 273.5,-249 279.5,-243 285.5,-243 285.5,-243 336.75,-243 336.75,-243 342.75,-243 348.75,-249 348.75,-255 348.75,-255 348.75,-267 348.75,-267 348.75,-273 342.75,-279 336.75,-279"/>
<text text-anchor="middle" x="311.12" y="-255.57" font-family="Arial" font-size="14.00">oracle_db</text>
</g>
<!-- oracle&#45;&gt;oracle_db -->
<g id="edge52" class="edge">
<title>oracle&#45;&gt;oracle_db</title>
<path fill="none" stroke="black" d="M218.3,-299.74C235.59,-292.44 256.25,-283.73 273.59,-276.41"/>
<polygon fill="black" stroke="black" points="217.28,-296.37 209.42,-303.48 220,-302.82 217.28,-296.37"/>
</g>
<!-- oracle_db&#45;b -->
<g id="node58" class="node">
<title>oracle_db&#45;b</title>
<path fill="#fff5f0" stroke="black" stroke-width="0" d="M480.25,-333C480.25,-333 417,-333 417,-333 411,-333 405,-327 405,-321 405,-321 405,-309 405,-309 405,-303 411,-297 417,-297 417,-297 480.25,-297 480.25,-297 486.25,-297 492.25,-303 492.25,-309 492.25,-309 492.25,-321 492.25,-321 492.25,-327 486.25,-333 480.25,-333"/>
<text text-anchor="middle" x="448.62" y="-309.57" font-family="Arial" font-size="14.00">oracle_db&#45;b</text>
</g>
<!-- oracle&#45;b&#45;&gt;oracle_db&#45;b -->
<g id="edge51" class="edge">
<title>oracle&#45;b&#45;&gt;oracle_db&#45;b</title>
<path fill="none" stroke="black" d="M354.49,-315C370.62,-315 388.99,-315 405.13,-315"/>
<polygon fill="black" stroke="black" points="354.73,-311.5 344.72,-315 354.72,-318.5 354.73,-311.5"/>
</g>
<!-- postgresql&#45;b -->
<g id="node60" class="node">
<title>postgresql&#45;b</title>
<path fill="#fcbba1" stroke="black" stroke-width="0" d="M344.25,-225C344.25,-225 278,-225 278,-225 272,-225 266,-219 266,-213 266,-213 266,-201 266,-201 266,-195 272,-189 278,-189 278,-189 344.25,-189 344.25,-189 350.25,-189 356.25,-195 356.25,-201 356.25,-201 356.25,-213 356.25,-213 356.25,-219 350.25,-225 344.25,-225"/>
<text text-anchor="middle" x="311.12" y="-201.57" font-family="Arial" font-size="14.00">postgresql&#45;b</text>
</g>
<!-- postgres&#45;b -->
<g id="node61" class="node">
<title>postgres&#45;b</title>
<path fill="#fff5f0" stroke="black" stroke-width="0" d="M476.5,-225C476.5,-225 420.75,-225 420.75,-225 414.75,-225 408.75,-219 408.75,-213 408.75,-213 408.75,-201 408.75,-201 408.75,-195 414.75,-189 420.75,-189 420.75,-189 476.5,-189 476.5,-189 482.5,-189 488.5,-195 488.5,-201 488.5,-201 488.5,-213 488.5,-213 488.5,-219 482.5,-225 476.5,-225"/>
<text text-anchor="middle" x="448.62" y="-201.57" font-family="Arial" font-size="14.00">postgres&#45;b</text>
</g>
<!-- postgresql&#45;b&#45;&gt;postgres&#45;b -->
<g id="edge53" class="edge">
<title>postgresql&#45;b&#45;&gt;postgres&#45;b</title>
<path fill="none" stroke="black" d="M367.55,-207C381.42,-207 396.01,-207 408.87,-207"/>
<polygon fill="black" stroke="black" points="367.63,-203.5 357.63,-207 367.63,-210.5 367.63,-203.5"/>
</g>
<!-- postgresql&#45;&gt;postgresql&#45;b -->
<g id="edge55" class="edge">
<title>postgresql&#45;&gt;postgresql&#45;b</title>
<path fill="none" stroke="black" d="M231.35,-207C242.81,-207 254.93,-207 266.14,-207"/>
<polygon fill="black" stroke="black" points="231.7,-203.5 221.7,-207 231.7,-210.5 231.7,-203.5"/>
</g>
<!-- postgres -->
<g id="node63" class="node">
<title>postgres</title>
<path fill="#fff5f0" stroke="black" stroke-width="0" d="M333,-171C333,-171 289.25,-171 289.25,-171 283.25,-171 277.25,-165 277.25,-159 277.25,-159 277.25,-147 277.25,-147 277.25,-141 283.25,-135 289.25,-135 289.25,-135 333,-135 333,-135 339,-135 345,-141 345,-147 345,-147 345,-159 345,-159 345,-165 339,-171 333,-171"/>
<text text-anchor="middle" x="311.12" y="-147.57" font-family="Arial" font-size="14.00">postgres</text>
</g>
<!-- postgresql&#45;&gt;postgres -->
<g id="edge54" class="edge">
<title>postgresql&#45;&gt;postgres</title>
<path fill="none" stroke="black" d="M230.77,-186.48C246.44,-179.87 263.41,-172.71 277.62,-166.71"/>
<polygon fill="black" stroke="black" points="229.43,-183.24 221.58,-190.36 232.15,-189.69 229.43,-183.24"/>
</g>
<!-- sqlite&#45;b -->
<g id="node67" class="node">
<title>sqlite&#45;b</title>
<path fill="#fee0d2" stroke="black" stroke-width="0" d="M328.88,-117C328.88,-117 293.38,-117 293.38,-117 287.38,-117 281.38,-111 281.38,-105 281.38,-105 281.38,-93 281.38,-93 281.38,-87 287.38,-81 293.38,-81 293.38,-81 328.88,-81 328.88,-81 334.88,-81 340.88,-87 340.88,-93 340.88,-93 340.88,-105 340.88,-105 340.88,-111 334.88,-117 328.88,-117"/>
<text text-anchor="middle" x="311.12" y="-93.58" font-family="Arial" font-size="14.00">sqlite&#45;b</text>
</g>
<!-- sqlite&#45;&gt;sqlite&#45;b -->
<g id="edge59" class="edge">
<title>sqlite&#45;&gt;sqlite&#45;b</title>
<path fill="none" stroke="black" d="M219.17,-118.19C239.05,-113.99 263.18,-108.9 281.59,-105.02"/>
<polygon fill="black" stroke="black" points="218.57,-114.74 209.51,-120.22 220.02,-121.58 218.57,-114.74"/>
</g>
<!-- text&#45;b -->
<g id="node79" class="node">
<title>text&#45;b</title>
<path fill="#fcbba1" stroke="black" stroke-width="0" d="M326.12,-819C326.12,-819 296.12,-819 296.12,-819 290.12,-819 284.12,-813 284.12,-807 284.12,-807 284.12,-795 284.12,-795 284.12,-789 290.12,-783 296.12,-783 296.12,-783 326.12,-783 326.12,-783 332.12,-783 338.12,-789 338.12,-795 338.12,-795 338.12,-807 338.12,-807 338.12,-813 332.12,-819 326.12,-819"/>
<text text-anchor="middle" x="311.12" y="-795.58" font-family="Arial" font-size="14.00">text&#45;b</text>
</g>
<!-- text&#45;c&#45;&gt;text&#45;b -->
<g id="edge71" class="edge">
<title>text&#45;c&#45;&gt;text&#45;b</title>
<path fill="none" stroke="black" d="M218.49,-762.34C239.47,-771.19 265.36,-782.11 284.26,-790.09"/>
<polygon fill="black" stroke="black" points="220,-759.18 209.42,-758.52 217.28,-765.63 220,-759.18"/>
</g>
<!-- text&#45;bc -->
<g id="node80" class="node">
<title>text&#45;bc</title>
<path fill="#fff5f0" stroke="black" stroke-width="0" d="M327.38,-765C327.38,-765 294.88,-765 294.88,-765 288.88,-765 282.88,-759 282.88,-753 282.88,-753 282.88,-741 282.88,-741 282.88,-735 288.88,-729 294.88,-729 294.88,-729 327.38,-729 327.38,-729 333.38,-729 339.38,-735 339.38,-741 339.38,-741 339.38,-753 339.38,-753 339.38,-759 333.38,-765 327.38,-765"/>
<text text-anchor="middle" x="311.12" y="-741.58" font-family="Arial" font-size="14.00">text&#45;bc</text>
</g>
<!-- text&#45;c&#45;&gt;text&#45;bc -->
<g id="edge72" class="edge">
<title>text&#45;c&#45;&gt;text&#45;bc</title>
<path fill="none" stroke="black" d="M219.41,-747C239.73,-747 264.44,-747 282.94,-747"/>
<polygon fill="black" stroke="black" points="219.54,-743.5 209.54,-747 219.54,-750.5 219.54,-743.5"/>
</g>
<!-- text -->
<g id="node85" class="node">
<title>text</title>
<path fill="#fc9272" stroke="black" stroke-width="0" d="M326.12,-711C326.12,-711 296.12,-711 296.12,-711 290.12,-711 284.12,-705 284.12,-699 284.12,-699 284.12,-687 284.12,-687 284.12,-681 290.12,-675 296.12,-675 296.12,-675 326.12,-675 326.12,-675 332.12,-675 338.12,-681 338.12,-687 338.12,-687 338.12,-699 338.12,-699 338.12,-705 332.12,-711 326.12,-711"/>
<text text-anchor="middle" x="311.12" y="-687.58" font-family="Arial" font-size="14.00">text</text>
</g>
<!-- text&#45;c&#45;&gt;text -->
<g id="edge78" class="edge">
<title>text&#45;c&#45;&gt;text</title>
<path fill="none" stroke="black" d="M218.49,-731.66C239.47,-722.81 265.36,-711.89 284.26,-703.91"/>
<polygon fill="black" stroke="black" points="217.28,-728.37 209.42,-735.48 220,-734.82 217.28,-728.37"/>
</g>
<!-- txt&#45;c -->
<g id="node90" class="node">
<title>txt&#45;c</title>
<path fill="#fff5f0" stroke="black" stroke-width="0" d="M326.12,-657C326.12,-657 296.12,-657 296.12,-657 290.12,-657 284.12,-651 284.12,-645 284.12,-645 284.12,-633 284.12,-633 284.12,-627 290.12,-621 296.12,-621 296.12,-621 326.12,-621 326.12,-621 332.12,-621 338.12,-627 338.12,-633 338.12,-633 338.12,-645 338.12,-645 338.12,-651 332.12,-657 326.12,-657"/>
<text text-anchor="middle" x="311.12" y="-633.58" font-family="Arial" font-size="14.00">txt&#45;c</text>
</g>
<!-- text&#45;c&#45;&gt;txt&#45;c -->
<g id="edge83" class="edge">
<title>text&#45;c&#45;&gt;txt&#45;c</title>
<path fill="none" stroke="black" d="M204.55,-720.83C219.78,-703.97 240.96,-682.25 262.25,-666 269.08,-660.79 277.02,-655.9 284.45,-651.76"/>
<polygon fill="black" stroke="black" points="202.19,-718.22 198.16,-728.02 207.42,-722.87 202.19,-718.22"/>
</g>
<!-- txt&#45;b -->
<g id="node86" class="node">
<title>txt&#45;b</title>
<path fill="#fff5f0" stroke="black" stroke-width="0" d="M463.62,-819C463.62,-819 433.62,-819 433.62,-819 427.62,-819 421.62,-813 421.62,-807 421.62,-807 421.62,-795 421.62,-795 421.62,-789 427.62,-783 433.62,-783 433.62,-783 463.62,-783 463.62,-783 469.62,-783 475.62,-789 475.62,-795 475.62,-795 475.62,-807 475.62,-807 475.62,-813 469.62,-819 463.62,-819"/>
<text text-anchor="middle" x="448.62" y="-795.58" font-family="Arial" font-size="14.00">txt&#45;b</text>
</g>
<!-- text&#45;b&#45;&gt;txt&#45;b -->
<g id="edge79" class="edge">
<title>text&#45;b&#45;&gt;txt&#45;b</title>
<path fill="none" stroke="black" d="M349.36,-801C372.41,-801 401.41,-801 421.92,-801"/>
<polygon fill="black" stroke="black" points="349.44,-797.5 339.44,-801 349.44,-804.5 349.44,-797.5"/>
</g>
<!-- txt&#45;bc -->
<g id="node87" class="node">
<title>txt&#45;bc</title>
<path fill="#fff5f0" stroke="black" stroke-width="0" d="M463.62,-765C463.62,-765 433.62,-765 433.62,-765 427.62,-765 421.62,-759 421.62,-753 421.62,-753 421.62,-741 421.62,-741 421.62,-735 427.62,-729 433.62,-729 433.62,-729 463.62,-729 463.62,-729 469.62,-729 475.62,-735 475.62,-741 475.62,-741 475.62,-753 475.62,-753 475.62,-759 469.62,-765 463.62,-765"/>
<text text-anchor="middle" x="448.62" y="-741.58" font-family="Arial" font-size="14.00">txt&#45;bc</text>
</g>
<!-- text&#45;bc&#45;&gt;txt&#45;bc -->
<g id="edge80" class="edge">
<title>text&#45;bc&#45;&gt;txt&#45;bc</title>
<path fill="none" stroke="black" d="M350.6,-747C373.45,-747 401.81,-747 421.95,-747"/>
<polygon fill="black" stroke="black" points="350.73,-743.5 340.73,-747 350.73,-750.5 350.73,-743.5"/>
</g>
<!-- text&#45;bce -->
<g id="node82" class="node">
<title>text&#45;bce</title>
<path fill="#fff5f0" stroke="black" stroke-width="0" d="M468.62,-1413C468.62,-1413 428.62,-1413 428.62,-1413 422.62,-1413 416.62,-1407 416.62,-1401 416.62,-1401 416.62,-1389 416.62,-1389 416.62,-1383 422.62,-1377 428.62,-1377 428.62,-1377 468.62,-1377 468.62,-1377 474.62,-1377 480.62,-1383 480.62,-1389 480.62,-1389 480.62,-1401 480.62,-1401 480.62,-1407 474.62,-1413 468.62,-1413"/>
<text text-anchor="middle" x="448.62" y="-1389.58" font-family="Arial" font-size="14.00">text&#45;bce</text>
</g>
<!-- text&#45;ce&#45;&gt;text&#45;bce -->
<g id="edge73" class="edge">
<title>text&#45;ce&#45;&gt;text&#45;bce</title>
<path fill="none" stroke="black" d="M350.34,-1375.61C371.35,-1379.8 397.07,-1384.93 416.79,-1388.86"/>
<polygon fill="black" stroke="black" points="351.2,-1372.22 340.7,-1373.69 349.83,-1379.08 351.2,-1372.22"/>
</g>
<!-- text&#45;e -->
<g id="node84" class="node">
<title>text&#45;e</title>
<path fill="#fcbba1" stroke="black" stroke-width="0" d="M463.62,-1359C463.62,-1359 433.62,-1359 433.62,-1359 427.62,-1359 421.62,-1353 421.62,-1347 421.62,-1347 421.62,-1335 421.62,-1335 421.62,-1329 427.62,-1323 433.62,-1323 433.62,-1323 463.62,-1323 463.62,-1323 469.62,-1323 475.62,-1329 475.62,-1335 475.62,-1335 475.62,-1347 475.62,-1347 475.62,-1353 469.62,-1359 463.62,-1359"/>
<text text-anchor="middle" x="448.62" y="-1335.58" font-family="Arial" font-size="14.00">text&#45;e</text>
</g>
<!-- text&#45;ce&#45;&gt;text&#45;e -->
<g id="edge77" class="edge">
<title>text&#45;ce&#45;&gt;text&#45;e</title>
<path fill="none" stroke="black" d="M350.28,-1360.4C373.19,-1355.83 401.72,-1350.15 421.95,-1346.12"/>
<polygon fill="black" stroke="black" points="349.83,-1356.92 340.7,-1362.31 351.2,-1363.78 349.83,-1356.92"/>
</g>
<!-- txt&#45;ce -->
<g id="node91" class="node">
<title>txt&#45;ce</title>
<path fill="#fff5f0" stroke="black" stroke-width="0" d="M463.62,-1305C463.62,-1305 433.62,-1305 433.62,-1305 427.62,-1305 421.62,-1299 421.62,-1293 421.62,-1293 421.62,-1281 421.62,-1281 421.62,-1275 427.62,-1269 433.62,-1269 433.62,-1269 463.62,-1269 463.62,-1269 469.62,-1269 475.62,-1275 475.62,-1281 475.62,-1281 475.62,-1293 475.62,-1293 475.62,-1299 469.62,-1305 463.62,-1305"/>
<text text-anchor="middle" x="448.62" y="-1281.58" font-family="Arial" font-size="14.00">txt&#45;ce</text>
</g>
<!-- text&#45;ce&#45;&gt;txt&#45;ce -->
<g id="edge84" class="edge">
<title>text&#45;ce&#45;&gt;txt&#45;ce</title>
<path fill="none" stroke="black" d="M347.82,-1344.01C362.55,-1334.38 379.91,-1323.36 396,-1314 404.22,-1309.22 413.36,-1304.31 421.64,-1300.01"/>
<polygon fill="black" stroke="black" points="346.25,-1340.85 339.83,-1349.28 350.1,-1346.7 346.25,-1340.85"/>
</g>
<!-- text&#45;be -->
<g id="node83" class="node">
<title>text&#45;be</title>
<path fill="#fcbba1" stroke="black" stroke-width="0" d="M603.12,-1413C603.12,-1413 569.88,-1413 569.88,-1413 563.88,-1413 557.88,-1407 557.88,-1401 557.88,-1401 557.88,-1389 557.88,-1389 557.88,-1383 563.88,-1377 569.88,-1377 569.88,-1377 603.12,-1377 603.12,-1377 609.12,-1377 615.12,-1383 615.12,-1389 615.12,-1389 615.12,-1401 615.12,-1401 615.12,-1407 609.12,-1413 603.12,-1413"/>
<text text-anchor="middle" x="586.5" y="-1389.58" font-family="Arial" font-size="14.00">text&#45;be</text>
</g>
<!-- text&#45;bce&#45;&gt;text&#45;be -->
<g id="edge74" class="edge">
<title>text&#45;bce&#45;&gt;text&#45;be</title>
<path fill="none" stroke="black" d="M491.94,-1395C513.49,-1395 539.06,-1395 558.02,-1395"/>
<polygon fill="black" stroke="black" points="491.97,-1391.5 481.97,-1395 491.97,-1398.5 491.97,-1391.5"/>
</g>
<!-- txt&#45;bce -->
<g id="node88" class="node">
<title>txt&#45;bce</title>
<path fill="#fff5f0" stroke="black" stroke-width="0" d="M602.75,-1359C602.75,-1359 570.25,-1359 570.25,-1359 564.25,-1359 558.25,-1353 558.25,-1347 558.25,-1347 558.25,-1335 558.25,-1335 558.25,-1329 564.25,-1323 570.25,-1323 570.25,-1323 602.75,-1323 602.75,-1323 608.75,-1323 614.75,-1329 614.75,-1335 614.75,-1335 614.75,-1347 614.75,-1347 614.75,-1353 608.75,-1359 602.75,-1359"/>
<text text-anchor="middle" x="586.5" y="-1335.58" font-family="Arial" font-size="14.00">txt&#45;bce</text>
</g>
<!-- text&#45;bce&#45;&gt;txt&#45;bce -->
<g id="edge81" class="edge">
<title>text&#45;bce&#45;&gt;txt&#45;bce</title>
<path fill="none" stroke="black" d="M491.12,-1378.51C513.01,-1369.81 539.22,-1359.39 558.47,-1351.74"/>
<polygon fill="black" stroke="black" points="489.86,-1375.24 481.86,-1382.19 492.45,-1381.75 489.86,-1375.24"/>
</g>
<!-- txt&#45;be -->
<g id="node89" class="node">
<title>txt&#45;be</title>
<path fill="#fff5f0" stroke="black" stroke-width="0" d="M715.75,-1413C715.75,-1413 685.75,-1413 685.75,-1413 679.75,-1413 673.75,-1407 673.75,-1401 673.75,-1401 673.75,-1389 673.75,-1389 673.75,-1383 679.75,-1377 685.75,-1377 685.75,-1377 715.75,-1377 715.75,-1377 721.75,-1377 727.75,-1383 727.75,-1389 727.75,-1389 727.75,-1401 727.75,-1401 727.75,-1407 721.75,-1413 715.75,-1413"/>
<text text-anchor="middle" x="700.75" y="-1389.58" font-family="Arial" font-size="14.00">txt&#45;be</text>
</g>
<!-- text&#45;be&#45;&gt;txt&#45;be -->
<g id="edge82" class="edge">
<title>text&#45;be&#45;&gt;txt&#45;be</title>
<path fill="none" stroke="black" d="M626.07,-1395C641.94,-1395 659.9,-1395 674.11,-1395"/>
<polygon fill="black" stroke="black" points="626.47,-1391.5 616.47,-1395 626.47,-1398.5 626.47,-1391.5"/>
</g>
<!-- txt&#45;e -->
<g id="node92" class="node">
<title>txt&#45;e</title>
<path fill="#fff5f0" stroke="black" stroke-width="0" d="M601.5,-1305C601.5,-1305 571.5,-1305 571.5,-1305 565.5,-1305 559.5,-1299 559.5,-1293 559.5,-1293 559.5,-1281 559.5,-1281 559.5,-1275 565.5,-1269 571.5,-1269 571.5,-1269 601.5,-1269 601.5,-1269 607.5,-1269 613.5,-1275 613.5,-1281 613.5,-1281 613.5,-1293 613.5,-1293 613.5,-1299 607.5,-1305 601.5,-1305"/>
<text text-anchor="middle" x="586.5" y="-1281.58" font-family="Arial" font-size="14.00">txt&#45;e</text>
</g>
<!-- text&#45;e&#45;&gt;txt&#45;e -->
<g id="edge85" class="edge">
<title>text&#45;e&#45;&gt;txt&#45;e</title>
<path fill="none" stroke="black" d="M486.02,-1326.54C509.27,-1317.29 538.87,-1305.53 559.72,-1297.25"/>
<polygon fill="black" stroke="black" points="484.91,-1323.21 476.91,-1330.16 487.49,-1329.72 484.91,-1323.21"/>
</g>
<!-- txt -->
<g id="node93" class="node">
<title>txt</title>
<path fill="#fff5f0" stroke="black" stroke-width="0" d="M463.62,-711C463.62,-711 433.62,-711 433.62,-711 427.62,-711 421.62,-705 421.62,-699 421.62,-699 421.62,-687 421.62,-687 421.62,-681 427.62,-675 433.62,-675 433.62,-675 463.62,-675 463.62,-675 469.62,-675 475.62,-681 475.62,-687 475.62,-687 475.62,-699 475.62,-699 475.62,-705 469.62,-711 463.62,-711"/>
<text text-anchor="middle" x="448.62" y="-687.58" font-family="Arial" font-size="14.00">txt</text>
</g>
<!-- text&#45;&gt;txt -->
<g id="edge86" class="edge">
<title>text&#45;&gt;txt</title>
<path fill="none" stroke="black" d="M349.36,-693C372.41,-693 401.41,-693 421.92,-693"/>
<polygon fill="black" stroke="black" points="349.44,-689.5 339.44,-693 349.44,-696.5 349.44,-689.5"/>
</g>
</g>
</svg>
