<?xml version="1.0" encoding="UTF-8" standalone="no"?>
<!-- Created with Inkscape (http://www.inkscape.org/) -->

<svg
   version="1.1"
   id="svg1"
   width="2069.5869"
   height="370.45856"
   viewBox="0 0 2069.5869 370.45857"
   sodipodi:docname="logo.svg"
   inkscape:version="1.3 (0e150ed, 2023-07-21)"
   xmlns:inkscape="http://www.inkscape.org/namespaces/inkscape"
   xmlns:sodipodi="http://sodipodi.sourceforge.net/DTD/sodipodi-0.dtd"
   xmlns="http://www.w3.org/2000/svg"
   xmlns:svg="http://www.w3.org/2000/svg">
  <defs
     id="defs1" />
  <sodipodi:namedview
     id="namedview1"
     pagecolor="#ffffff"
     bordercolor="#000000"
     borderopacity="0.25"
     inkscape:showpageshadow="2"
     inkscape:pageopacity="0.0"
     inkscape:pagecheckerboard="0"
     inkscape:deskcolor="#d1d1d1"
     showgrid="false"
     inkscape:zoom="0.35613263"
     inkscape:cx="1092.2897"
     inkscape:cy="22.463541"
     inkscape:window-width="1920"
     inkscape:window-height="1027"
     inkscape:window-x="0"
     inkscape:window-y="25"
     inkscape:window-maximized="0"
     inkscape:current-layer="text1">
    <inkscape:page
       x="0"
       y="0"
       inkscape:label="1"
       id="page1"
       width="2069.5869"
       height="370.45856"
       margin="0"
       bleed="0" />
    <inkscape:grid
       id="grid18"
       units="px"
       originx="-640.65299"
       originy="-850.99798"
       spacingx="1"
       spacingy="1"
       empcolor="#0099e5"
       empopacity="0.30196078"
       color="#0099e5"
       opacity="0.14901961"
       empspacing="5"
       dotted="false"
       gridanglex="30"
       gridanglez="30"
       visible="false" />
  </sodipodi:namedview>
  <g
     id="g1"
     inkscape:groupmode="layer"
     inkscape:label="logo"
     transform="translate(-640.65299,-850.99803)">
    <g
       id="text1"
       style="font-size:466.667px;font-family:'JetBrains Mono NL';-inkscape-font-specification:'JetBrains Mono NL';fill:#569daa;stroke-width:19.6;stroke-linecap:round;stroke-opacity:0.826506;paint-order:markers stroke fill"
       aria-label="mlconfs">
      <path
         style="font-weight:200;font-family:'Helvetica Neue';-inkscape-font-specification:'Helvetica Neue Ultra-Light';fill:#e25e3e"
         d="m 1075.4821,947.13146 h 17.7333 v 49.00003 h 0.9334 q 2.8,-11.20001 9.8,-21.00001 7,-10.26668 16.8,-17.73335 10.2667,-7.46667 22.4,-11.66667 12.6,-4.20001 26.1334,-4.20001 17.2666,0 29.8667,4.66667 12.6,4.20001 21.4666,11.66668 8.8667,7 14,16.33334 5.1334,8.86668 7,18.20002 h 0.9334 q 10.7333,-25.20002 28.4667,-37.80003 18.2,-13.06668 47.6,-13.06668 16.3333,0 29.8667,5.13334 14,4.66667 23.8,14.93334 10.2667,9.80001 15.8667,25.20002 5.6,15.40005 5.6,36.40005 v 163.8001 h -17.7334 v -164.2668 q 0,-22.86667 -7,-35.93335 -7,-13.06667 -16.8,-19.60001 -9.3333,-7.00001 -19.1333,-8.40001 -9.3334,-1.86667 -14.4667,-1.86667 -16.3333,0 -30.3334,5.60001 -13.5333,5.6 -23.8,16.80001 -9.8,11.20001 -15.4,28.00002 -5.6,16.3333 -5.6,37.8 v 141.8668 h -17.7333 v -164.2668 q 0,-22.4 -7,-35.46668 -6.5334,-13.53334 -15.8667,-20.06668 -8.8667,-6.53334 -18.6667,-8.40001 -9.3333,-1.86667 -14.9333,-1.86667 -12.6,0 -26.1334,5.13334 -13.5333,5.13334 -24.7333,15.86668 -11.2,10.73334 -18.2001,27.53332 -7,16.8 -7,39.6667 v 141.8668 h -17.7333 z m 392.9334,-93.3334 v 333.20024 h -17.7334 V 853.79806 Z"
         id="path7" />
      <path
         style="font-style:italic;font-weight:bold;font-family:'Helvetica Neue';-inkscape-font-specification:'Helvetica Neue Bold Italic';fill:#ff9b50"
         d="m 1681.682,1029.2648 h 66.2667 q -0.4667,-23.8 -9.3334,-41.06665 -8.4,-17.26668 -23.3333,-28.00002 -14.4667,-10.73334 -34.0667,-15.86667 -19.6,-5.13334 -41.5334,-5.13334 -32.6667,0 -57.8667,12.13334 -25.2,11.66667 -42.9333,32.66669 -17.2667,20.53335 -26.6001,48.06665 -8.8666,27.0667 -8.8666,57.8668 0,53.2 28,78.4 28.4667,24.7334 79.3334,24.7334 47.6,0 78.4,-24.2667 31.2667,-24.7334 46.2001,-70.0001 h -66.2667 q -2.8,8.8667 -7.4667,17.2667 -4.2,7.9333 -11.2,14 -6.5334,6.0667 -15.4,9.8 -8.4,3.7334 -19.6,3.7334 -12.6001,0 -21.4667,-4.2 -8.4,-4.2 -14,-11.2 -5.6,-7.0001 -7.9334,-16.3334 -2.3333,-9.8 -2.3333,-20.5333 0,-15.4001 3.2667,-33.1334 3.7333,-18.2 11.6666,-33.6 7.9334,-15.4 21,-25.20004 13.0667,-10.26667 31.7334,-10.26667 22.4,0 33.1334,9.33334 11.2,9.33337 11.2,30.79997 z m 147.4666,60.2001 q 0,-15.4 4.2,-32.6667 4.2,-17.7333 12.6,-32.6667 8.4,-14.9333 21.4667,-24.73334 13.5333,-10.26667 31.7333,-10.26667 26.6001,0 37.3334,14.46671 11.2,14.4666 11.2,38.7333 0,15.4 -4.2,33.1334 -4.2,17.7333 -13.0667,33.1333 -8.4,14.9334 -21.9333,25.2001 -13.0667,9.8 -31.7334,9.8 -11.6666,0 -20.5333,-4.2 -8.8667,-4.6667 -14.9334,-12.1334 -6.0666,-7.4667 -9.3333,-17.2667 -2.8,-9.8 -2.8,-20.5333 z m -66.2667,0 q 0,51.8 29.8667,77.9334 30.3333,25.6667 80.7334,25.6667 33.1333,0 58.8,-11.6667 26.1333,-11.6667 44.3334,-32.2 18.2,-20.5334 27.5333,-48.0667 9.8,-28.0001 9.8,-59.7334 0,-26.1334 -8.4,-45.26671 -7.9333,-19.13335 -22.8667,-31.73335 -14.9333,-12.60001 -35.9333,-18.66668 -20.5334,-6.53334 -45.2667,-6.53334 -32.2,0 -57.8667,12.13334 -25.6667,11.66667 -43.8667,32.20002 -17.7334,20.53332 -27.5334,48.06672 -9.3333,27.0667 -9.3333,57.8667 z m 316.8662,-143.73344 -49.9334,241.26684 h 65.8001 l 27.0667,-128.3334 q 2.8,-12.6 7.9333,-24.7334 5.6,-12.1333 13.5333,-21.4667 8.4,-9.3333 19.6,-14.93331 11.6667,-6.06667 26.6001,-6.06667 11.6666,0 21.4666,7.00001 10.2667,6.99997 10.2667,17.73337 0,5.1333 -1.8666,14.4666 -1.4,9.3334 -2.3334,14.9334 l -29.4,141.4001 h 66.2667 l 29.8667,-141.4001 q 0.4667,-3.2667 1.4,-8.4 1.4,-5.6 2.3333,-11.6667 1.4,-6.0667 2.3334,-11.6667 0.9333,-6.0666 0.9333,-9.8 0,-64.86668 -70.4667,-64.86668 -52.2667,0 -84.4667,40.13336 h -0.9334 l 7.4667,-33.60002 z m 289.7993,44.33336 -41.5334,196.93348 h 66.2667 l 41.5334,-196.93348 h 47.6 l 9.3334,-44.33336 h -47.1334 q 2.8,-10.73334 4.6667,-18.66668 1.8666,-8.40001 5.1333,-14.00001 3.7334,-6.06667 10.2667,-8.86668 6.5333,-3.26667 19.1333,-3.26667 5.1334,0 10.7334,0.46667 5.6,0.46667 10.7333,0.93334 l 10.2667,-47.60004 q -10.7333,-1.86667 -21.9334,-2.8 -10.7333,-0.93333 -21.4666,-0.93333 -26.1334,0 -42.4667,6.06667 -15.8667,6.06667 -25.6667,18.20001 -9.8,12.13334 -15.4,29.86669 -5.6,17.26668 -10.2667,40.60003 h -39.6667 l -9.3333,44.33336 z m 279.0665,26.13338 h 61.6001 q 0.4667,-23.33338 -7.4667,-38.26672 -7.9333,-14.93335 -21.9333,-23.33335 -13.5334,-8.86667 -31.7334,-12.13334 -18.2,-3.26667 -37.8,-3.26667 -17.2667,0 -36.4,4.2 -18.6667,3.73334 -34.5334,13.06668 -15.8667,8.86667 -26.1333,23.33335 -9.8001,14.46667 -9.8001,35.93335 0,14.4667 3.2667,24.2667 3.7334,9.8 10.2667,16.8 7,7 16.3333,11.6667 9.8,4.6666 22.4001,8.8666 l 50.8667,16.3334 q 10.7333,3.7333 17.2666,8.8667 6.5334,5.1333 6.5334,17.7333 0,8.4 -3.7334,14 -3.7333,5.1334 -9.8,8.8667 -6.0666,3.2667 -13.5333,4.6667 -7.4667,1.4 -14.9334,1.4 -8.4,0 -17.2666,-1.8667 -8.4,-2.3333 -15.4,-6.0667 -6.5334,-4.2 -10.7334,-10.2666 -4.2,-6.0667 -4.2,-14.4667 v -7.9334 h -61.1334 v 9.8 q 0,21.4667 9.3334,35.9334 9.3333,14 23.8,22.8667 14.9333,8.4 33.1333,12.1333 18.2001,3.7334 35.9334,3.7334 21,0 41.5334,-4.2 20.5333,-4.2 36.8667,-14.0001 16.3333,-9.8 26.1333,-25.2 10.2667,-15.8666 10.2667,-38.2667 0,-14.9333 -5.1334,-26.1333 -4.6666,-11.2 -13.5333,-19.1334 -8.4,-8.4 -20.0667,-14 -11.2,-5.6 -24.7333,-9.8 l -33.1334,-10.7333 q -16.8,-5.1334 -23.8,-10.7334 -6.5333,-5.6 -6.5333,-13.5333 0,-13.06668 11.2,-18.20001 11.6666,-5.60001 29.4,-5.60001 19.6,0 28,8.86668 8.8667,8.40004 9.3333,23.80004 z"
         id="path8" />
    </g>
    <path
       style="fill:none;fill-opacity:1;stroke:#ffbb5c;stroke-width:11.5562;stroke-linecap:round;stroke-dasharray:none;stroke-opacity:1;paint-order:markers stroke fill"
       d="M 646.43111,1179.4846 H 1016.7671"
       id="path5" />
    <circle
       style="fill:#e25e3e;fill-opacity:1;stroke:#ffbb5c;stroke-width:11.7;stroke-linecap:round;stroke-dasharray:none;stroke-opacity:1;paint-order:normal"
       id="path6"
       cx="777.45422"
       cy="1179.4845"
       r="36.122124" />
    <path
       style="fill:none;fill-opacity:1;stroke:#ffbb5c;stroke-width:11.5562;stroke-linecap:round;stroke-dasharray:none;stroke-opacity:1;paint-order:markers stroke fill"
       d="M 646.43111,1064.0037 H 1016.7671"
       id="path5-9" />
    <circle
       style="fill:#e25e3e;fill-opacity:1;stroke:#ffbb5c;stroke-width:11.7;stroke-linecap:round;stroke-dasharray:none;stroke-opacity:1;paint-order:normal"
       id="path6-0"
       cx="917.45422"
       cy="1064.0037"
       r="36.122124" />
    <path
       style="fill:none;fill-opacity:1;stroke:#ffbb5c;stroke-width:11.5562;stroke-linecap:round;stroke-dasharray:none;stroke-opacity:1;paint-order:markers stroke fill"
       d="M 646.43111,948.52291 H 1016.7671"
       id="path5-7" />
    <circle
       style="fill:#e25e3e;fill-opacity:1;stroke:#ffbb5c;stroke-width:11.7;stroke-linecap:round;stroke-dasharray:none;stroke-opacity:1;paint-order:normal"
       id="path6-5"
       cx="717.45422"
       cy="948.52289"
       r="36.122124" />
  </g>
</svg>
